<?xml version="1.0" encoding="UTF-8"?>
<svg version="1.1" xmlns="http://www.w3.org/2000/svg" width="500" height="500">
<path d="M0 0 C1.9453125 0.1171875 1.9453125 0.1171875 4 1 C5.0546875 3.1328125 5.0546875 3.1328125 5.875 6.125 C6.20886719 7.31222656 6.54273438 8.49945313 6.88671875 9.72265625 C7.69999663 12.80899806 8.48510108 15.90231052 9.26953125 18.99609375 C9.74139909 20.85176316 10.21409008 22.7072234 10.6875 24.5625 C11.0585083 26.01837524 11.0585083 26.01837524 11.43701172 27.50366211 C14.14966851 37.93445347 17.50134296 48.14032848 20.85546875 58.37890625 C22.61675885 63.76660641 24.24465905 69.17869281 25.8125 74.625 C28.96026716 85.4361431 32.80662513 96.01211685 36.59887695 106.60986328 C37.09849575 108.00682675 37.59808907 109.40379932 38.09765625 110.80078125 C38.34433548 111.48943268 38.59101471 112.17808411 38.84516907 112.88760376 C40.4666989 117.43639712 41.99824426 122.00664291 43.49609375 126.59765625 C46.02323286 134.24055134 48.96295337 141.67480514 52 149.125 C53.02257282 151.64773511 54.04273962 154.17143939 55.0625 156.6953125 C55.55540527 157.91492676 56.04831055 159.13454102 56.55615234 160.39111328 C59.38189349 167.45403274 62.07828365 174.56617168 64.7734375 181.6796875 C67.9412432 190.00837263 71.34720929 198.13578643 75.1953125 206.171875 C76.82023261 209.57765085 78.33029766 213.02617724 79.83007812 216.48852539 C84.0204028 226.13439454 88.76048892 235.40867616 93.74755859 244.6640625 C94.98778136 246.97721092 96.20986877 249.29899256 97.42578125 251.625 C102.03607359 260.46032204 102.03607359 260.46032204 107.0625 269.0625 C122.25781263 293.99297115 128.67400869 322.66400097 121.98583984 351.53173828 C121.35810717 354.03156333 120.68587528 356.515479 120 359 C119.69964844 360.09844238 119.39929688 361.19688477 119.08984375 362.32861328 C115.60939987 374.95204676 111.88341862 387.49508219 108 400 C108.88977539 400.03536865 109.77955078 400.0707373 110.69628906 400.10717773 C127.50027964 400.86219574 145.8415161 403.74674559 157.890625 416.484375 C159 418 159 418 159 420 C159.66 420 160.32 420 161 420 C165.40592183 429.14817358 168.36635924 436.74194139 168 447 C168.66 447.33 169.32 447.66 170 448 C170 448.66 170 449.32 170 450 C170.99 450.309375 170.99 450.309375 172 450.625 C175.48659949 452.22302477 178.22051539 454.30629215 181.23046875 456.66015625 C182.96624445 458.05953287 182.96624445 458.05953287 185 459 C185 459.66 185 460.32 185 461 C185.57669434 461.27473145 186.15338867 461.54946289 186.74755859 461.83251953 C190.60265418 463.83068418 194.07219719 466.38923025 197.625 468.875 C198.40101563 469.40480469 199.17703125 469.93460937 199.9765625 470.48046875 C200.7190625 470.99996094 201.4615625 471.51945312 202.2265625 472.0546875 C202.90283691 472.52374512 203.57911133 472.99280273 204.27587891 473.47607422 C206.18063641 475.15966192 207.02113073 476.67385634 208 479 C200.21285185 478.54544231 193.09675683 476.86600123 185.625 474.6875 C184.57828125 474.39166016 183.5315625 474.09582031 182.453125 473.79101562 C176.09907987 471.97501384 169.82393979 469.98324996 163.57177734 467.84301758 C162.72309082 467.56482178 161.8744043 467.28662598 161 467 C160.28408691 466.75209717 159.56817383 466.50419434 158.83056641 466.2487793 C157.92443604 466.12563354 157.92443604 466.12563354 157 466 C156.0925 466.721875 155.185 467.44375 154.25 468.1875 C142.14264882 477.33187072 123.0971766 476.20888236 108.84375 474.57421875 C100.82418224 473.41209112 100.82418224 473.41209112 98 472 C92.14588165 472.20773187 86.32226704 473.4189944 80.58984375 474.55859375 C79.00587485 474.86531429 77.42188994 475.17195221 75.83789062 475.47851562 C73.39848893 475.95500121 70.95943526 476.4331812 68.52075195 476.91333008 C41.09696524 482.29661077 14.47510878 484.61046895 -13 478 C-14.07556152 477.7510498 -14.07556152 477.7510498 -15.17285156 477.49707031 C-24.91598523 475.17595288 -34.08247913 471.47432341 -43.3125 467.625 C-44.3859668 467.17890381 -45.45943359 466.73280762 -46.56542969 466.27319336 C-53.19176214 463.43472054 -59.37060491 460.18087797 -65.52807617 456.43115234 C-68.00449165 454.88646703 -68.00449165 454.88646703 -71 454 C-71 453.34 -71 452.68 -71 452 C-71.56074219 451.89300781 -72.12148437 451.78601563 -72.69921875 451.67578125 C-75.39776948 450.88316788 -77.42543211 449.672369 -79.8125 448.1875 C-83.83627915 445.71362096 -87.8881575 443.32408489 -92 441 C-92.33 441.66 -92.66 442.32 -93 443 C-95.13162246 443.76216964 -97.30095015 444.41935498 -99.48046875 445.03125 C-100.15305222 445.22335556 -100.82563568 445.41546112 -101.51860046 445.61338806 C-102.97693861 446.02992087 -104.43617432 446.44332089 -105.8961792 446.85397339 C-109.76639068 447.94516045 -113.6276907 449.06672245 -117.48828125 450.19140625 C-118.67248657 450.53631859 -118.67248657 450.53631859 -119.88061523 450.88819885 C-127.27062198 453.05446096 -134.60758273 455.36848057 -141.9178772 457.78955078 C-143.21606292 458.21934416 -144.51519305 458.64629603 -145.8152771 459.0703125 C-147.62694967 459.66236657 -149.43467165 460.26646829 -151.2421875 460.87109375 C-152.77141846 461.38047485 -152.77141846 461.38047485 -154.33154297 461.90014648 C-157.03684572 462.87998871 -157.03684572 462.87998871 -159.15673828 464.65258789 C-161 466 -161 466 -164.25 465.6875 C-165.61125 465.3471875 -165.61125 465.3471875 -167 465 C-168 462 -168 462 -166.8125 459.5625 C-166.214375 458.716875 -165.61625 457.87125 -165 457 C-164.46375 456.236875 -163.9275 455.47375 -163.375 454.6875 C-160.67087661 452.76614917 -160.07430836 452.86282027 -156.8984375 453.0390625 C-151.99540973 453.12909402 -147.9054852 452.12900723 -143.25 450.6875 C-141.65563451 450.21771559 -140.06057695 449.75027372 -138.46484375 449.28515625 C-137.69640137 449.05973145 -136.92795898 448.83430664 -136.13623047 448.60205078 C-133.38396793 447.82638456 -130.60979831 447.21566458 -127.8125 446.625 C-111.48740437 443.0465751 -111.48740437 443.0465751 -96 437 C-99.37641373 433.78489881 -99.37641373 433.78489881 -103.8046875 432.828125 C-105.32449219 433.03695312 -105.32449219 433.03695312 -106.875 433.25 C-115.69519047 434.23002116 -124.67178269 434.66160754 -133.5 433.5 C-148.61470996 431.61417958 -162.72045512 433.99200796 -177 439 C-177 439.66 -177 440.32 -177 441 C-177.66 441 -178.32 441 -179 441 C-179 441.66 -179 442.32 -179 443 C-184.75 444.125 -184.75 444.125 -187 443 C-187.48028458 439.79810278 -187.39641523 437.67170359 -185.734375 434.85546875 C-180.85753167 428.28593465 -180.85753167 428.28593465 -175.5234375 427.46484375 C-174.14109485 427.28540504 -172.75825447 427.10976878 -171.375 426.9375 C-170.31539062 426.80118164 -170.31539062 426.80118164 -169.234375 426.66210938 C-167.4899959 426.43816881 -165.74504866 426.21866182 -164 426 C-164.96099609 425.43732422 -164.96099609 425.43732422 -165.94140625 424.86328125 C-171.13675987 421.78942822 -176.24191115 418.72372171 -181 415 C-181 414.34 -181 413.68 -181 413 C-181.66 413 -182.32 413 -183 413 C-193.15594931 402.01453607 -196.41173095 390.28228624 -196.625 375.75 C-196.64820313 374.74428955 -196.67140625 373.7385791 -196.6953125 372.70239258 C-196.6204748 365.59456497 -195.14818749 359.86424902 -191 354 C-188.21105693 351.46393407 -187.53346245 350.9894179 -183.65234375 351.06640625 C-179.6213203 352.0967962 -176.97737342 353.57991573 -173.5625 355.9375 C-171.98662109 357.00291016 -171.98662109 357.00291016 -170.37890625 358.08984375 C-169.59386719 358.72019531 -168.80882812 359.35054688 -168 360 C-168 360.66 -168 361.32 -168 362 C-166.69289062 362.40605469 -166.69289062 362.40605469 -165.359375 362.8203125 C-162.14028085 363.95073859 -159.27145602 365.29894321 -156.25 366.875 C-140.25078545 374.94314736 -123.80398235 378.09703729 -106.20654297 380.67529297 C-102.90563884 381.1610423 -99.60944569 381.67559638 -96.3125 382.1875 C-94.54172875 382.45873893 -92.77092268 382.72975148 -91 383 C-91.48919922 381.63681641 -91.48919922 381.63681641 -91.98828125 380.24609375 C-98.52460281 361.64348727 -100.70099756 342.7913739 -101.16796875 323.12890625 C-101.73835277 299.33837272 -109.74139484 280.21443108 -125 262 C-125.8869768 260.92078495 -126.77369338 259.84135598 -127.66015625 258.76171875 C-132.92710726 252.40525044 -138.41062558 246.27851102 -144.11669922 240.3125 C-146.5810732 237.70286989 -148.64279171 235.34885122 -150 232 C-150.66 232 -151.32 232 -152 232 C-153.65625 230.28515625 -153.65625 230.28515625 -155.5 228.0625 C-157.88926999 225.07954821 -157.88926999 225.07954821 -161 223 C-161 222.34 -161 221.68 -161 221 C-161.58700684 220.73445312 -162.17401367 220.46890625 -162.77880859 220.1953125 C-165.06324238 218.96596673 -166.65928134 217.65394008 -168.5390625 215.875 C-169.19737061 215.25560547 -169.85567871 214.63621094 -170.53393555 213.99804688 C-171.22398682 213.33869141 -171.91403809 212.67933594 -172.625 212 C-173.3363208 211.32517578 -174.0476416 210.65035156 -174.78051758 209.95507812 C-176.85987042 207.97640378 -178.93127356 205.98977529 -181 204 C-181.54156738 203.48179687 -182.08313477 202.96359375 -182.64111328 202.4296875 C-188.75158621 196.56297799 -194.1716171 191.00742486 -197.78515625 183.2578125 C-200.26336812 178.2426579 -203.57663352 174.02553301 -207.02148438 169.64453125 C-211.53613541 163.72021613 -214.62303063 158.12753074 -213.75 150.5 C-213.6246604 146.15489387 -214.10180256 144.20359279 -217.0625 141 C-217.69800781 140.37351563 -218.33351563 139.74703125 -218.98828125 139.1015625 C-222.69017169 135.23434492 -225.27066149 130.57937981 -228 126 C-228.66 124.906875 -229.32 123.81375 -230 122.6875 C-231.25869966 119.30474465 -231.16102788 117.40568179 -230 114 C-227.94140625 112.828125 -227.94140625 112.828125 -226 112 C-226.38671875 111.46632813 -226.7734375 110.93265625 -227.171875 110.3828125 C-235.50217895 98.46470437 -239.75567215 84.60966157 -239 70 C-237.43359375 69.23828125 -237.43359375 69.23828125 -235 69 C-232.52965815 70.30436405 -230.3510696 71.61757501 -228.0625 73.1875 C-227.45470703 73.58775391 -226.84691406 73.98800781 -226.22070312 74.40039062 C-222.67533932 76.76014194 -219.19129379 79.17204137 -216 82 C-216 82.66 -216 83.32 -216 84 C-215.43796875 84.2578125 -214.8759375 84.515625 -214.296875 84.78125 C-211.73295421 86.14169777 -209.54773635 87.72788962 -207.25 89.5 C-206.45078125 90.1084375 -205.6515625 90.716875 -204.828125 91.34375 C-204.22484375 91.8903125 -203.6215625 92.436875 -203 93 C-203 93.66 -203 94.32 -203 95 C-202.43539062 95.24621094 -201.87078125 95.49242188 -201.2890625 95.74609375 C-198.60920728 97.21406905 -196.62041197 98.9935669 -194.375 101.0625 C-191.41210833 103.85780458 -191.41210833 103.85780458 -188 106 C-188 106.66 -188 107.32 -188 108 C-187.34 108 -186.68 108 -186 108 C-186 108.66 -186 109.32 -186 110 C-185.401875 110.28875 -184.80375 110.5775 -184.1875 110.875 C-182 112 -182 112 -179 114 C-179 114.66 -179 115.32 -179 116 C-178.44699219 116.24363281 -177.89398438 116.48726563 -177.32421875 116.73828125 C-174.51357264 118.26406057 -172.26332516 120.13276779 -169.8125 122.1875 C-165.49203856 125.78788454 -161.10075015 129.24235146 -156.58203125 132.58984375 C-156.05996094 133.05519531 -155.53789062 133.52054688 -155 134 C-155 134.66 -155 135.32 -155 136 C-154.41009277 136.27602051 -153.82018555 136.55204102 -153.21240234 136.83642578 C-151.10950081 137.94240997 -149.43663477 139.11777987 -147.6015625 140.6171875 C-146.64467529 141.39594238 -146.64467529 141.39594238 -145.66845703 142.19042969 C-144.99411621 142.74633789 -144.31977539 143.30224609 -143.625 143.875 C-142.57675049 144.73206543 -142.57675049 144.73206543 -141.50732422 145.60644531 C-136.04743033 150.08920179 -130.66711396 154.66192859 -125.34228516 159.30419922 C-122.36630015 161.93191347 -122.36630015 161.93191347 -119 164 C-119 164.66 -119 165.32 -119 166 C-117.35 166.66 -115.7 167.32 -114 168 C-114 168.66 -114 169.32 -114 170 C-113.43925781 170.25136719 -112.87851563 170.50273437 -112.30078125 170.76171875 C-103.93820187 175.26246181 -96.70179338 182.96133401 -89.55615234 189.19604492 C-85.86294222 192.41151468 -82.12727921 195.55335959 -78.3125 198.625 C-73.24905516 202.7196542 -68.48324007 207.0769739 -63.7265625 211.51953125 C-61.04251251 214.02870506 -61.04251251 214.02870506 -58.1484375 216.19921875 C-57.43945312 216.79347656 -56.73046875 217.38773438 -56 218 C-56 218.66 -56 219.32 -56 220 C-55.34 220 -54.68 220 -54 220 C-54 220.66 -54 221.32 -54 222 C-53.15743652 222.35578125 -53.15743652 222.35578125 -52.29785156 222.71875 C-49.47417342 224.29319357 -47.52385158 226.21684545 -45.234375 228.5 C-44.34492188 229.386875 -43.45546875 230.27375 -42.5390625 231.1875 C-41.61867187 232.115625 -40.69828125 233.04375 -39.75 234 C-38.81414062 234.928125 -37.87828125 235.85625 -36.9140625 236.8125 C-36.02976563 237.699375 -35.14546875 238.58625 -34.234375 239.5 C-33.42194336 240.3146875 -32.60951172 241.129375 -31.77246094 241.96875 C-30 244 -30 244 -30 246 C-29.34 246 -28.68 246 -28 246 C-26.37109375 247.80078125 -26.37109375 247.80078125 -24.4375 250.3125 C-21.54000499 254.0363564 -18.5935198 257.69654655 -15.5625 261.3125 C-10.66124898 267.29168939 -6.31745426 273.59222898 -2 280 C-1.21981516 281.12964264 -0.43856737 282.25855191 0.34375 283.38671875 C1.0759375 284.45535156 1.808125 285.52398437 2.5625 286.625 C3.22378906 287.58664062 3.88507813 288.54828125 4.56640625 289.5390625 C6 292 6 292 6 295 C6.66 295 7.32 295 8 295 C9.98 298.63 11.96 302.26 14 306 C17.53295173 301.28939769 19.79224059 296.4501454 22.25 291.125 C22.72179687 290.14402344 23.19359375 289.16304688 23.6796875 288.15234375 C26.98450934 281.30202478 26.98450934 281.30202478 26 274 C24.99543542 271.42908955 23.95567801 268.94365105 22.8125 266.4375 C22.50006348 265.73713623 22.18762695 265.03677246 21.86572266 264.31518555 C19.91491302 259.95923427 17.8993962 255.63471735 15.875 251.3125 C13.91607879 247.11555008 12.17252816 242.90485608 10.5625 238.5625 C8.77549561 233.7798054 6.70900429 229.27953002 4.375 224.75 C1.09815886 218.33848002 -1.28994698 212.27716778 -2.8125 205.25 C-3.64885056 201.55131176 -5.2637854 198.64012201 -7.0625 195.3125 C-10.44267522 188.36436204 -10.69054526 181.90504589 -10.68579102 174.24731445 C-10.69022217 173.38195068 -10.69465332 172.51658691 -10.69921875 171.625 C-10.68721436 170.85414063 -10.67520996 170.08328125 -10.6628418 169.2890625 C-11.09681104 166.34272243 -12.4321878 164.5145072 -14 162 C-17.22055855 153.05488758 -17.81337654 143.56705532 -18.50805664 134.16552734 C-18.68625623 131.76674267 -18.88190692 129.36986476 -19.08007812 126.97265625 C-21.7057753 94.05866295 -21.7057753 94.05866295 -15 84 C-14.77218266 81.15590911 -14.77218266 81.15590911 -14.91015625 77.93359375 C-14.93013672 76.72509766 -14.95011719 75.51660156 -14.97070312 74.27148438 C-15.03124906 71.74272529 -15.09625423 69.21406851 -15.16601562 66.68554688 C-15.31923269 56.705304 -13.59057202 49.2591719 -9.4375 40.25 C-6.66385017 33.3076205 -6.15480414 26.47406398 -5.80834961 19.04199219 C-5.45353731 12.87858612 -4.6201128 4.6201128 0 0 Z " fill="#F0E7CD" transform="translate(265,9)"/>
<path d="M0 0 C1.9453125 0.1171875 1.9453125 0.1171875 4 1 C5.0546875 3.1328125 5.0546875 3.1328125 5.875 6.125 C6.20886719 7.31222656 6.54273438 8.49945313 6.88671875 9.72265625 C7.69999663 12.80899806 8.48510108 15.90231052 9.26953125 18.99609375 C9.74139909 20.85176316 10.21409008 22.7072234 10.6875 24.5625 C10.93483887 25.5330835 11.18217773 26.50366699 11.43701172 27.50366211 C14.14966851 37.93445347 17.50134296 48.14032848 20.85546875 58.37890625 C22.61675885 63.76660641 24.24465905 69.17869281 25.8125 74.625 C28.96026716 85.4361431 32.80662513 96.01211685 36.59887695 106.60986328 C37.09849575 108.00682675 37.59808907 109.40379932 38.09765625 110.80078125 C38.34433548 111.48943268 38.59101471 112.17808411 38.84516907 112.88760376 C40.4666989 117.43639712 41.99824426 122.00664291 43.49609375 126.59765625 C46.02323286 134.24055134 48.96295337 141.67480514 52 149.125 C53.02257282 151.64773511 54.04273962 154.17143939 55.0625 156.6953125 C55.55540527 157.91492676 56.04831055 159.13454102 56.55615234 160.39111328 C59.38189349 167.45403274 62.07828365 174.56617168 64.7734375 181.6796875 C67.9412432 190.00837263 71.34720929 198.13578643 75.1953125 206.171875 C76.82023261 209.57765085 78.33029766 213.02617724 79.83007812 216.48852539 C84.0204028 226.13439454 88.76048892 235.40867616 93.74755859 244.6640625 C94.98778136 246.97721092 96.20986877 249.29899256 97.42578125 251.625 C102.03607359 260.46032204 102.03607359 260.46032204 107.0625 269.0625 C122.46125946 294.32675995 128.58601083 323.02164769 121.78369141 352.20629883 C121.21619896 354.47898506 120.61468379 356.73964223 120 359 C119.66331299 360.26553711 119.66331299 360.26553711 119.31982422 361.55664062 C117.93962991 366.72248321 116.49644887 371.86668974 115 377 C114.34 377 113.68 377 113 377 C110.73141173 384.27235389 108.79354806 391.59684417 107 399 C88.48057428 398.48770607 74.92004374 393.67472299 61.03125 381.1484375 C59.14317032 379.15143014 58.04819091 377.51793686 57 375 C56.34 375 55.68 375 55 375 C53.4921875 373.3203125 53.4921875 373.3203125 51.875 371.125 C51.33617187 370.40570313 50.79734375 369.68640625 50.2421875 368.9453125 C49 367 49 367 49 365 C48.34 365 47.68 365 47 365 C45.81079102 363.42700195 45.81079102 363.42700195 44.50390625 361.23828125 C44.02759766 360.44873047 43.55128906 359.65917969 43.06054688 358.84570312 C42.56619141 358.00974609 42.07183594 357.17378906 41.5625 356.3125 C41.07201172 355.49587891 40.58152344 354.67925781 40.07617188 353.83789062 C39.12861542 352.25862987 38.18524922 350.67684556 37.24658203 349.09228516 C36.23621281 347.39646372 35.19836022 345.7170374 34.15234375 344.04296875 C33 342 33 342 33 340 C32.34 340 31.68 340 31 340 C30.60941406 339.19820313 30.21882813 338.39640625 29.81640625 337.5703125 C27.66234216 333.26218431 25.29159218 329.07604368 22.9375 324.875 C22.04998351 323.28950879 21.16323742 321.70358603 20.27734375 320.1171875 C19.88796631 319.42222168 19.49858887 318.72725586 19.09741211 318.01123047 C16.29581053 312.87672683 14.792076 308.93562655 16 303 C17.67634701 298.80419236 19.81745063 294.84083426 21.95703125 290.8671875 C22.64167833 289.58006384 23.32277861 288.29104614 24 287 C24.47832275 286.08976074 24.47832275 286.08976074 24.96630859 285.16113281 C26.98334127 280.9801237 27.29668847 278.43844468 26 274 C24.99543542 271.42908955 23.95567801 268.94365105 22.8125 266.4375 C22.34384521 265.38695435 22.34384521 265.38695435 21.86572266 264.31518555 C19.91491302 259.95923427 17.8993962 255.63471735 15.875 251.3125 C13.91607879 247.11555008 12.17252816 242.90485608 10.5625 238.5625 C8.77549561 233.7798054 6.70900429 229.27953002 4.375 224.75 C1.09815886 218.33848002 -1.28994698 212.27716778 -2.8125 205.25 C-3.64885056 201.55131176 -5.2637854 198.64012201 -7.0625 195.3125 C-10.44267522 188.36436204 -10.69054526 181.90504589 -10.68579102 174.24731445 C-10.69022217 173.38195068 -10.69465332 172.51658691 -10.69921875 171.625 C-10.68121216 170.46871094 -10.68121216 170.46871094 -10.6628418 169.2890625 C-11.09681104 166.34272243 -12.4321878 164.5145072 -14 162 C-17.22055855 153.05488758 -17.81337654 143.56705532 -18.50805664 134.16552734 C-18.68625623 131.76674267 -18.88190692 129.36986476 -19.08007812 126.97265625 C-21.7057753 94.05866295 -21.7057753 94.05866295 -15 84 C-14.77218266 81.15590911 -14.77218266 81.15590911 -14.91015625 77.93359375 C-14.93013672 76.72509766 -14.95011719 75.51660156 -14.97070312 74.27148438 C-15.03124906 71.74272529 -15.09625423 69.21406851 -15.16601562 66.68554688 C-15.31923269 56.705304 -13.59057202 49.2591719 -9.4375 40.25 C-6.66385017 33.3076205 -6.15480414 26.47406398 -5.80834961 19.04199219 C-5.45353731 12.87858612 -4.6201128 4.6201128 0 0 Z " fill="#DFD4B4" transform="translate(265,9)"/>
<path d="M0 0 C8.10698925 1.37168148 16.14586458 7.50569324 22 13 C22 13.66 22 14.32 22 15 C22.56203125 15.2578125 23.1240625 15.515625 23.703125 15.78125 C26.26704579 17.14169777 28.45226365 18.72788962 30.75 20.5 C31.54921875 21.1084375 32.3484375 21.716875 33.171875 22.34375 C33.77515625 22.8903125 34.3784375 23.436875 35 24 C35 24.66 35 25.32 35 26 C35.56460938 26.24621094 36.12921875 26.49242188 36.7109375 26.74609375 C39.39079272 28.21406905 41.37958803 29.9935669 43.625 32.0625 C46.58789167 34.85780458 46.58789167 34.85780458 50 37 C50 37.66 50 38.32 50 39 C50.66 39 51.32 39 52 39 C52 39.66 52 40.32 52 41 C52.598125 41.28875 53.19625 41.5775 53.8125 41.875 C56 43 56 43 59 45 C59 45.66 59 46.32 59 47 C59.55300781 47.24363281 60.10601562 47.48726562 60.67578125 47.73828125 C63.48642736 49.26406057 65.73667484 51.13276779 68.1875 53.1875 C72.50796144 56.78788454 76.89924985 60.24235146 81.41796875 63.58984375 C82.20107422 64.28787109 82.20107422 64.28787109 83 65 C83 65.66 83 66.32 83 67 C83.57975586 67.27529541 84.15951172 67.55059082 84.75683594 67.83422852 C91.65931946 71.4214465 101.20841181 77.4333294 104.1171875 84.84765625 C104.12568922 87.73399143 103.59998454 90.17755722 103 93 C101.33795964 101.94834696 100.68795596 110.59287825 100.75 119.6875 C100.74226563 120.83283203 100.73453125 121.97816406 100.7265625 123.15820312 C100.74048227 129.24462464 101.12685494 134.89835304 102.52856445 140.82885742 C103.16093335 143.74116015 103.37667777 146.63222432 103.55859375 149.6015625 C104.08537511 152.46389661 105.12479374 155.03789606 106.17749023 157.74267578 C107.65293883 161.79194789 108.68965923 165.96713511 109.8125 170.125 C111.95714015 177.89231526 114.51671514 185.1707458 117.8984375 192.48046875 C119 195 119 195 119 197 C118.01 197 117.02 197 116 197 C114.31854263 195.06032979 112.81745912 193.13341479 111.3125 191.0625 C106.08491938 184.10240703 100.28958516 177.8317461 94.2199707 171.59985352 C93.55698975 170.91334717 92.89400879 170.22684082 92.2109375 169.51953125 C91.61587402 168.91214111 91.02081055 168.30475098 90.40771484 167.67895508 C89 166 89 166 88 163 C87.34 163 86.68 163 86 163 C84.34375 161.28515625 84.34375 161.28515625 82.5 159.0625 C80.11073001 156.07954821 80.11073001 156.07954821 77 154 C77 153.34 77 152.68 77 152 C76.41299316 151.73445312 75.82598633 151.46890625 75.22119141 151.1953125 C72.93675762 149.96596673 71.34071866 148.65394008 69.4609375 146.875 C68.80262939 146.25560547 68.14432129 145.63621094 67.46606445 144.99804688 C66.77601318 144.33869141 66.08596191 143.67933594 65.375 143 C64.6636792 142.32517578 63.9523584 141.65035156 63.21948242 140.95507812 C61.14012958 138.97640378 59.06872644 136.98977529 57 135 C56.45843262 134.48179687 55.91686523 133.96359375 55.35888672 133.4296875 C49.24841379 127.56297799 43.8283829 122.00742486 40.21484375 114.2578125 C37.73663188 109.2426579 34.42336648 105.02553301 30.97851562 100.64453125 C26.46386459 94.72021613 23.37696937 89.12753074 24.25 81.5 C24.3753396 77.15489387 23.89819744 75.20359279 20.9375 72 C20.30199219 71.37351562 19.66648437 70.74703125 19.01171875 70.1015625 C15.30982831 66.23434492 12.72933851 61.57937981 10 57 C9.34 55.906875 8.68 54.81375 8 53.6875 C6.74130034 50.30474465 6.83897212 48.40568179 8 45 C10.05859375 43.828125 10.05859375 43.828125 12 43 C11.61328125 42.46632812 11.2265625 41.93265625 10.828125 41.3828125 C2.58143485 29.58433005 -1.98314946 15.50145446 -1 1 C-0.67 0.67 -0.34 0.34 0 0 Z " fill="#435050" transform="translate(27,78)"/>
<path d="M0 0 C0 2.31 0 4.62 0 7 C0.66 7 1.32 7 2 7 C2 9.97 2 12.94 2 16 C2.66 16 3.32 16 4 16 C4 19.3 4 22.6 4 26 C4.66 26 5.32 26 6 26 C6.06058594 27.21816406 6.12117188 28.43632813 6.18359375 29.69140625 C6.26806403 31.31511277 6.35270872 32.93881022 6.4375 34.5625 C6.47681641 35.36236328 6.51613281 36.16222656 6.55664062 36.98632812 C6.80748156 41.71371506 7.25321814 46.32476901 8 51 C8.66 51 9.32 51 10 51 C10.08636719 51.54785156 10.17273438 52.09570312 10.26171875 52.66015625 C11.21978143 58.06573928 12.64984263 63.1892725 14.4375 68.375 C17.43339976 77.08585045 19.95769602 85.82772494 21 95 C21.66 95 22.32 95 23 95 C23.13277344 95.56589844 23.26554687 96.13179688 23.40234375 96.71484375 C23.57894531 97.44832031 23.75554687 98.18179688 23.9375 98.9375 C24.11152344 99.66839844 24.28554688 100.39929688 24.46484375 101.15234375 C24.83887569 102.99969898 24.83887569 102.99969898 26 104 C26.04080783 105.99958364 26.04254356 108.00045254 26 110 C26.66 110 27.32 110 28 110 C28.70005949 112.07914664 29.38462244 114.16351586 30.0625 116.25 C30.44535156 117.41015625 30.82820313 118.5703125 31.22265625 119.765625 C32.27585879 124.14779435 31.78908399 125.68486002 29.51171875 129.48046875 C28.90972656 130.37378906 28.30773437 131.26710937 27.6875 132.1875 C25.05239404 136.23158098 22.83696488 140.16923411 21.01953125 144.63671875 C20.12177694 146.71772012 19.12569737 148.67429271 18.07421875 150.6796875 C6.89264105 172.9320832 5.38271743 200.58856638 5 225 C1.33488152 222.55658768 0.50204928 220.01265674 -1 216.0625 C-1.26490234 215.38590332 -1.52980469 214.70930664 -1.80273438 214.01220703 C-3.60591281 209.30947316 -4.96046373 204.59814947 -6.1484375 199.703125 C-7.12741952 196.5955307 -8.57544767 193.98910147 -10.125 191.125 C-13.48864997 184.26546811 -13.69006198 177.81567742 -13.68603516 170.24658203 C-13.69038574 169.38145996 -13.69473633 168.51633789 -13.69921875 167.625 C-13.68121216 166.46871094 -13.68121216 166.46871094 -13.6628418 165.2890625 C-14.09681104 162.34272243 -15.4321878 160.5145072 -17 158 C-20.22055855 149.05488758 -20.81337654 139.56705532 -21.50805664 130.16552734 C-21.68625623 127.76674267 -21.88190692 125.36986476 -22.08007812 122.97265625 C-24.7057753 90.05866295 -24.7057753 90.05866295 -18 80 C-17.77218266 77.15590911 -17.77218266 77.15590911 -17.91015625 73.93359375 C-17.93013672 72.72509766 -17.95011719 71.51660156 -17.97070312 70.27148438 C-18.03124906 67.74272529 -18.09625423 65.21406851 -18.16601562 62.68554688 C-18.31923269 52.705304 -16.59057202 45.2591719 -12.4375 36.25 C-8.72136013 26.94845713 -8.56952297 16.90596514 -8 7 C-7.34 7 -6.68 7 -6 7 C-6 6.01 -6 5.02 -6 4 C-1.54285714 0 -1.54285714 0 0 0 Z " fill="#455358" transform="translate(268,13)"/>
<path d="M0 0 C1.09699219 0.55429687 2.19398437 1.10859375 3.32421875 1.6796875 C4.77859187 2.41156558 6.23302196 3.14333045 7.6875 3.875 C8.7693457 4.42220703 8.7693457 4.42220703 9.87304688 4.98046875 C16.78905905 8.51813762 16.78905905 8.51813762 24.25 10.5 C25.1575 10.665 26.065 10.83 27 11 C27.495 11.99 27.495 11.99 28 13 C30.28961571 13.93258499 32.52657273 14.74564635 34.875 15.5 C35.56118408 15.72067139 36.24736816 15.94134277 36.9543457 16.16870117 C47.0016322 19.3220576 56.14923134 20.21246383 66.65698242 20.01489258 C72.20349132 19.92027212 77.49629294 20.28573621 83 21 C83 21.66 83 22.32 83 23 C72.28109123 26.73915422 61.57846203 26.20994269 50.53613281 24.41113281 C45.54066854 23.70871777 45.54066854 23.70871777 41 25.82421875 C38.96807124 27.83381745 38.96807124 27.83381745 38 30 C36.4221875 29.9071875 36.4221875 29.9071875 34.8125 29.8125 C28.72666321 29.7906085 22.82652347 31.34872389 17 33 C16.67 33.33 16.34 33.66 16 34 C14.2668047 34.32192488 12.52330874 34.58870465 10.77734375 34.83203125 C9.6881665 34.98889404 8.59898926 35.14575684 7.47680664 35.30737305 C6.30883545 35.47406494 5.14086426 35.64075684 3.9375 35.8125 C-7.26466885 37.46558054 -18.23323843 39.41107948 -29 43 C-29 43.66 -29 44.32 -29 45 C-29.66 45 -30.32 45 -31 45 C-31 45.66 -31 46.32 -31 47 C-36.75 48.125 -36.75 48.125 -39 47 C-39.48028458 43.79810278 -39.39641523 41.67170359 -37.734375 38.85546875 C-33.61640401 33.30820201 -33.61640401 33.30820201 -31 32 C-29.49327515 31.79299379 -27.97987786 31.63320288 -26.46484375 31.5 C-25.57345703 31.4175 -24.68207031 31.335 -23.76367188 31.25 C-21.87568134 31.08299047 -19.98766032 30.9163252 -18.09960938 30.75 C-16.76446289 30.62625 -16.76446289 30.62625 -15.40234375 30.5 C-14.58241943 30.4278125 -13.76249512 30.355625 -12.91772461 30.28125 C-10.995216 30.19422182 -10.995216 30.19422182 -10 29 C-8.50308597 28.70326231 -6.99506528 28.46200981 -5.484375 28.24609375 C-4.56269531 28.11396484 -3.64101562 27.98183594 -2.69140625 27.84570312 C-1.23541016 27.64364258 -1.23541016 27.64364258 0.25 27.4375 C1.20519531 27.29892578 2.16039062 27.16035156 3.14453125 27.01757812 C7.47576872 26.40614474 11.61792287 25.92213341 16 26 C16.33 25.34 16.66 24.68 17 24 C18.0725 24.020625 19.145 24.04125 20.25 24.0625 C23.73712115 24.14588008 23.73712115 24.14588008 26 23.5 C28.9944331 22.75139172 31.92990521 22.94095972 35 23 C34.505 21.515 34.505 21.515 34 20 C31.58121072 18.84075099 29.25671405 17.86040508 26.75 16.9375 C26.08097656 16.68162109 25.41195312 16.42574219 24.72265625 16.16210938 C22.81782956 15.43423356 20.90899528 14.71687166 19 14 C17.3313824 13.3382315 15.66376021 12.67388737 14 12 C14 11.34 14 10.68 14 10 C13.154375 9.938125 12.30875 9.87625 11.4375 9.8125 C7.08504592 8.78373813 4.47247622 6.69894641 1 4 C0.01 3.34 -0.98 2.68 -2 2 C-1.34 2 -0.68 2 0 2 C0 1.34 0 0.68 0 0 Z " fill="#DDC59F" transform="translate(117,405)"/>
<path d="M0 0 C1.8828125 0.1796875 1.8828125 0.1796875 4 1 C5.0546875 3.1328125 5.0546875 3.1328125 5.875 6.125 C6.20886719 7.31222656 6.54273438 8.49945313 6.88671875 9.72265625 C7.69999663 12.80899806 8.48510108 15.90231052 9.26953125 18.99609375 C9.74139909 20.85176316 10.21409008 22.7072234 10.6875 24.5625 C10.93483887 25.5330835 11.18217773 26.50366699 11.43701172 27.50366211 C14.14759391 37.92647616 17.49624861 48.12467084 20.84765625 58.35546875 C22.65218112 63.87551423 24.32545765 69.42137052 25.9375 75 C27.611375 80.77988126 29.49421774 86.44686734 31.5546875 92.1015625 C31.7808223 92.72222595 32.00695709 93.3428894 32.23994446 93.98236084 C33.36301609 97.05659526 34.50139323 100.1231559 35.66186523 103.18359375 C40.7016048 116.81240463 40.7016048 116.81240463 40 123 C39.04624896 124.36679798 38.04464902 125.70135217 37 127 C36.26739841 129.31347872 35.588562 131.645752 35 134 C34.34 134 33.68 134 33 134 C32.67 134.99 32.34 135.98 32 137 C31.34 137 30.68 137 30 137 C31.20381448 134.50638429 32.45428722 132.31856917 34 130 C33.65109374 125.37699201 32.48809625 121.36508233 31 117 C31 116.01 31 115.02 31 114 C30.34 114 29.68 114 29 114 C28.690625 112.88625 28.38125 111.7725 28.0625 110.625 C27.17673517 107.2054845 27.17673517 107.2054845 26 105 C25.960008 103.00039988 25.95653201 100.99952758 26 99 C25.34 99 24.68 99 24 99 C21.98664061 92.66353898 20.03702694 86.34579851 18.5 79.875 C17.5394075 75.85218721 16.32349875 72.09907051 14.8125 68.25 C13.02512421 63.56748318 12.62405809 59.98123029 13 55 C12.34 55 11.68 55 11 55 C9.0830427 49.37742839 8.75110076 44.47630615 8.875 38.5625 C8.88402344 37.73556641 8.89304687 36.90863281 8.90234375 36.05664062 C8.92568488 34.03763292 8.96154712 32.01877644 9 30 C8.34 30 7.68 30 7 30 C7 26.7 7 23.4 7 20 C6.34 20 5.68 20 5 20 C3.875 14.375 3.875 14.375 5 11 C4.34 11 3.68 11 3 11 C2.67 9.02 2.34 7.04 2 5 C1.54625 5.495 1.0925 5.99 0.625 6.5 C-1 8 -1 8 -3 8 C-3.33 8.99 -3.66 9.98 -4 11 C-3.39301257 6.87248551 -1.96189209 3.6678852 0 0 Z " fill="#B2B5B0" transform="translate(265,9)"/>
<path d="M0 0 C1.98 0.66 3.96 1.32 6 2 C6 2.66 6 3.32 6 4 C6.66 4.20625 7.32 4.4125 8 4.625 C11.48659949 6.22302477 14.22051539 8.30629215 17.23046875 10.66015625 C18.96624445 12.05953287 18.96624445 12.05953287 21 13 C21 13.66 21 14.32 21 15 C21.57669434 15.27473145 22.15338867 15.54946289 22.74755859 15.83251953 C26.60265418 17.83068418 30.07219719 20.38923025 33.625 22.875 C34.78902344 23.66970703 34.78902344 23.66970703 35.9765625 24.48046875 C36.7190625 24.99996094 37.4615625 25.51945312 38.2265625 26.0546875 C38.90283691 26.52374512 39.57911133 26.99280273 40.27587891 27.47607422 C42.18063641 29.15966192 43.02113073 30.67385634 44 33 C36.12877681 32.54813757 28.92761917 30.82179548 21.375 28.625 C20.29476562 28.32078125 19.21453125 28.0165625 18.1015625 27.703125 C12.28781054 26.04407871 6.62381095 24.21956703 1 22 C1 21.34 1 20.68 1 20 C0.46375 19.896875 -0.0725 19.79375 -0.625 19.6875 C-6.66226497 17.93987067 -11.7083891 14.55824945 -16 10 C-16 9.34 -16 8.68 -16 8 C-14.92878906 7.50628906 -13.85757812 7.01257813 -12.75390625 6.50390625 C-11.35671751 5.85688596 -9.95958499 5.20974427 -8.5625 4.5625 C-7.50192383 4.07426758 -7.50192383 4.07426758 -6.41992188 3.57617188 C-2.97280957 2.15430614 -2.97280957 2.15430614 0 0 Z " fill="#C79013" transform="translate(429,455)"/>
<path d="M0 0 C-1 2 -1 2 -3.05371094 2.77783203 C-3.93833008 3.01872559 -4.82294922 3.25961914 -5.734375 3.5078125 C-7.18457031 3.90419922 -7.18457031 3.90419922 -8.6640625 4.30859375 C-10.19160156 4.71271484 -10.19160156 4.71271484 -11.75 5.125 C-12.75289062 5.40214844 -13.75578125 5.67929687 -14.7890625 5.96484375 C-19.32289639 7.18549134 -23.27643973 8.16892624 -28 8 C-28 8.66 -28 9.32 -28 10 C-28.80107178 10.13575439 -29.60214355 10.27150879 -30.42749023 10.41137695 C-34.09877992 11.03779457 -37.76810878 11.67505971 -41.4375 12.3125 C-42.69755859 12.52583984 -43.95761719 12.73917969 -45.25585938 12.95898438 C-52.08929589 14.15438972 -58.49299064 15.58553842 -65 18 C-65 18.66 -65 19.32 -65 20 C-65.66 20 -66.32 20 -67 20 C-67 20.66 -67 21.32 -67 22 C-72.75 23.125 -72.75 23.125 -75 22 C-75.48028458 18.79810278 -75.39641523 16.67170359 -73.734375 13.85546875 C-69.61640401 8.30820201 -69.61640401 8.30820201 -67 7 C-65.27273078 6.85910218 -63.54071368 6.77417312 -61.80859375 6.71875 C-60.78185547 6.68136719 -59.75511719 6.64398438 -58.69726562 6.60546875 C-56.52018637 6.53503 -54.34310302 6.46471795 -52.16601562 6.39453125 C-51.14056641 6.35714844 -50.11511719 6.31976563 -49.05859375 6.28125 C-48.11298584 6.25095703 -47.16737793 6.22066406 -46.19311523 6.18945312 C-44.024596 6.23913801 -44.024596 6.23913801 -43 5 C-38.64181521 4.13257992 -34.24696109 3.47424166 -29.85693359 2.78833008 C-27.66737491 2.44416077 -25.48025831 2.08678285 -23.29296875 1.72851562 C-15.49919994 0.48427537 -7.91447876 -0.37228384 0 0 Z " fill="#613931" transform="translate(153,430)"/>
<path d="M0 0 C0 0.99 0 1.98 0 3 C-0.66 3 -1.32 3 -2 3 C-2 3.66 -2 4.32 -2 5 C-2.78197754 5.22026855 -3.56395508 5.44053711 -4.36962891 5.66748047 C-19.56485263 9.9663474 -34.69117284 14.42266835 -49.6875 19.375 C-50.33301819 19.58541931 -50.97853638 19.79583862 -51.64361572 20.01263428 C-53.4773913 20.61208029 -55.30715489 21.22375741 -57.13671875 21.8359375 C-58.17530029 22.18188965 -59.21388184 22.5278418 -60.28393555 22.88427734 C-63.03119149 23.875158 -63.03119149 23.875158 -65.16333008 25.65478516 C-67 27 -67 27 -70.25 26.6875 C-71.1575 26.460625 -72.065 26.23375 -73 26 C-74 23 -74 23 -72.8125 20.5625 C-72.214375 19.716875 -71.61625 18.87125 -71 18 C-70.46375 17.236875 -69.9275 16.47375 -69.375 15.6875 C-66.67087661 13.76614917 -66.07430836 13.86282027 -62.8984375 14.0390625 C-57.99534191 14.12909526 -53.90558259 13.12884258 -49.25 11.6875 C-47.65821957 11.21907993 -46.06576612 10.752941 -44.47265625 10.2890625 C-43.70453613 10.06379883 -42.93641602 9.83853516 -42.14501953 9.60644531 C-39.34755597 8.81553938 -36.52840776 8.17735096 -33.6875 7.5625 C-26.8035504 6.04838321 -20.07228353 4.03433459 -13.33276367 1.98071289 C-8.76007429 0.62528752 -4.82795836 -0.35792113 0 0 Z " fill="#704B4C" transform="translate(171,448)"/>
<path d="M0 0 C0.886875 0.391875 1.77375 0.78375 2.6875 1.1875 C2.6875 1.8475 2.6875 2.5075 2.6875 3.1875 C3.3475 3.39375 4.0075 3.6 4.6875 3.8125 C8.17409949 5.41052477 10.90801539 7.49379215 13.91796875 9.84765625 C15.65374445 11.24703287 15.65374445 11.24703287 17.6875 12.1875 C17.6875 12.8475 17.6875 13.5075 17.6875 14.1875 C18.26419434 14.46223145 18.84088867 14.73696289 19.43505859 15.02001953 C23.29015418 17.01818418 26.75969719 19.57673025 30.3125 22.0625 C31.47652344 22.85720703 31.47652344 22.85720703 32.6640625 23.66796875 C33.4065625 24.18746094 34.1490625 24.70695312 34.9140625 25.2421875 C35.59033691 25.71124512 36.26661133 26.18030273 36.96337891 26.66357422 C38.86813641 28.34716192 39.70863073 29.86135634 40.6875 32.1875 C32.00231952 31.77878562 23.99456251 29.56885792 15.6875 27.1875 C18.78523244 26.34687603 21.47082751 26.09814799 24.6875 26.1875 C23.78 25.713125 22.8725 25.23875 21.9375 24.75 C14.07824821 20.25899898 7.04716235 14.59013304 0.6875 8.1875 C-3.80053782 5.35808485 -7.03920394 4.87110224 -12.3125 5.1875 C-10.99691297 4.16426564 -9.65881825 3.16994845 -8.3125 2.1875 C-7.136875 1.2903125 -7.136875 1.2903125 -5.9375 0.375 C-3.3125 -0.8125 -3.3125 -0.8125 0 0 Z " fill="#EBAD3F" transform="translate(432.3125,455.8125)"/>
<path d="M0 0 C1.8828125 0.1796875 1.8828125 0.1796875 4 1 C5.0546875 3.1328125 5.0546875 3.1328125 5.875 6.125 C6.20371094 7.29546875 6.53242188 8.4659375 6.87109375 9.671875 C7.25082533 11.11368446 7.62677492 12.55649259 8 14 C8.22445801 14.86689453 8.44891602 15.73378906 8.68017578 16.62695312 C8.92106934 17.55958984 9.16196289 18.49222656 9.41015625 19.453125 C9.65950928 20.41839111 9.9088623 21.38365723 10.16577148 22.37817383 C10.68320481 24.38750445 11.19700029 26.39777516 11.70727539 28.40893555 C13.15587466 34.04564631 14.80832671 39.47525892 16.8125 44.9375 C19.36683677 52.32683136 20.83386587 60.16728243 20 68 C17.99609375 69.953125 17.99609375 69.953125 16 71 C13.54970669 65.28264895 12.66733709 61.20970773 13 55 C12.34 55 11.68 55 11 55 C9.0830427 49.37742839 8.75110076 44.47630615 8.875 38.5625 C8.88402344 37.73556641 8.89304687 36.90863281 8.90234375 36.05664062 C8.92568488 34.03763292 8.96154712 32.01877644 9 30 C8.34 30 7.68 30 7 30 C7 26.7 7 23.4 7 20 C6.34 20 5.68 20 5 20 C3.875 14.375 3.875 14.375 5 11 C4.34 11 3.68 11 3 11 C2.67 9.02 2.34 7.04 2 5 C1.54625 5.495 1.0925 5.99 0.625 6.5 C-1 8 -1 8 -3 8 C-3.33 8.99 -3.66 9.98 -4 11 C-3.39301257 6.87248551 -1.96189209 3.6678852 0 0 Z " fill="#A6ABA8" transform="translate(265,9)"/>
<path d="M0 0 C2.03833424 1.2739589 4.03852126 2.61061923 6 4 C6 4.66 6 5.32 6 6 C4.68 6 3.36 6 2 6 C2 7.98 2 9.96 2 12 C2.66 12 3.32 12 4 12 C4 12.99 4 13.98 4 15 C2.02 15.99 2.02 15.99 0 17 C-0.07487239 21.6589823 -0.12893832 26.31760455 -0.16479492 30.97705078 C-0.17976271 32.55784211 -0.20014437 34.13859278 -0.22631836 35.71923828 C-0.47727791 47.559611 -0.47727791 47.559611 2.30151367 58.9987793 C3.06078608 61.17415712 3.31742196 63.14619898 3.5 65.4375 C3.9666991 70.81882639 5.48024381 75.83440385 7 81 C7.33 82.19625 7.66 83.3925 8 84.625 C9.23276832 88.78559307 10.60645356 92.89102879 12 97 C13.04449911 100.13349732 12.93423645 100.98968256 12 104 C8.62084864 97.0568567 6.38440946 89.98797074 4.3125 82.5625 C3.7060064 80.41752157 3.09801104 78.27296701 2.48828125 76.12890625 C2.22571533 75.19119385 1.96314941 74.25348145 1.69262695 73.28735352 C1.07012766 70.99958423 1.07012766 70.99958423 0 69 C-0.47126084 65.37718231 -0.86821612 61.75400597 -1.25 58.12109375 C-1.62626935 53.92946897 -1.62626935 53.92946897 -3 50 C-4.15523391 33.21935227 -2.70834586 16.55020214 0 0 Z " fill="#ABA68C" transform="translate(130,161)"/>
<path d="M0 0 C-9.41002278 3.44419134 -9.41002278 3.44419134 -14 3 C-14.33 3.99 -14.66 4.98 -15 6 C-12.525 6.495 -12.525 6.495 -10 7 C-13.09913975 10.09913975 -17.29843191 10.80697118 -21.4140625 12.05664062 C-25.18047447 13.24661921 -27.88824515 14.62042276 -31 17 C-34.25 16.6875 -34.25 16.6875 -37 16 C-38 13 -38 13 -36.8125 10.5625 C-36.214375 9.716875 -35.61625 8.87125 -35 8 C-34.46375 7.236875 -33.9275 6.47375 -33.375 5.6875 C-30.67147567 3.76657482 -30.10338997 3.86766846 -26.93359375 4.0546875 C-21.81943142 4.15287859 -17.52886189 2.97515243 -12.6875 1.4375 C-11.13175258 0.94789337 -9.57320967 0.4670617 -8.01171875 -0.00390625 C-7.33584717 -0.21861572 -6.65997559 -0.4333252 -5.96362305 -0.65454102 C-3.6868541 -1.05509156 -2.18215575 -0.70139633 0 0 Z " fill="#6E4A49" transform="translate(135,458)"/>
<path d="M0 0 C2.04119788 1.61594832 4.04072937 3.2856382 6 5 C6 5.66 6 6.32 6 7 C6.639375 7.268125 7.27875 7.53625 7.9375 7.8125 C10 9 10 9 11 12 C11.598125 12.144375 12.19625 12.28875 12.8125 12.4375 C15.77773027 13.19998778 16.82440593 14.82440593 19 17 C22.7205523 19.73446607 26.38236166 22.37351579 30.703125 24.046875 C33 25 33 25 34.3125 27.125 C34.539375 27.74375 34.76625 28.3625 35 29 C26.40365644 29 17.36171851 22.41995354 11 17 C10.01 17.99 9.02 18.98 8 20 C7.54625 19.071875 7.0925 18.14375 6.625 17.1875 C5.0578367 13.96078611 5.0578367 13.96078611 3 11 C1.0971646 6.97477127 0 4.49225132 0 0 Z " fill="#D2BD90" transform="translate(71,396)"/>
<path d="M0 0 C0.33 0.66 0.66 1.32 1 2 C0.690625 2.825 0.38125 3.65 0.0625 4.5 C-1.13400523 8.44142898 -1.03734843 11.56151972 -0.77734375 15.6328125 C-1 18 -1 18 -2.4375 19.81640625 C-4.6571841 22.91841478 -4.73843356 26.11814261 -5.0625 29.8125 C-5.56517751 35.11301035 -6.46950391 39.87076987 -8 45 C-8.40922135 47.13957089 -8.78649998 49.28560701 -9.125 51.4375 C-9.29257812 52.48808594 -9.46015625 53.53867188 -9.6328125 54.62109375 C-9.75398438 55.40613281 -9.87515625 56.19117188 -10 57 C-9.34 57.33 -8.68 57.66 -8 58 C-8.165 58.804375 -8.33 59.60875 -8.5 60.4375 C-9.00634956 64.04524058 -9.03629752 67.41606626 -8.9375 71.046875 C-9 73 -9 73 -10 75 C-10.99 74.67 -11.98 74.34 -13 74 C-12.02842235 12.02842235 -12.02842235 12.02842235 0 0 Z " fill="#BCB595" transform="translate(285,164)"/>
<path d="M0 0 C4.97027722 0.45184338 6.56781498 1.54892221 10 5 C11.73418447 6.06228758 13.50856186 7.06103361 15.3125 8 C16.27929688 8.51046875 17.24609375 9.0209375 18.2421875 9.546875 C19.15226562 10.02640625 20.06234375 10.5059375 21 11 C22.31663492 11.74271713 23.62990456 12.49148143 24.9375 13.25 C27.26629249 14.58073857 29.58362204 15.84013858 32 17 C32 17.66 32 18.32 32 19 C33.98 19.66 35.96 20.32 38 21 C38 21.66 38 22.32 38 23 C38.66 23 39.32 23 40 23 C40 23.66 40 24.32 40 25 C38.35153231 24.55123384 36.70626545 24.09069512 35.0625 23.625 C34.14597656 23.36976563 33.22945312 23.11453125 32.28515625 22.8515625 C30 22 30 22 29 20 C27.32275485 19.26776984 25.64278495 18.54090963 23.94726562 17.85205078 C20.86738431 16.50440963 18.09292077 14.72266739 15.25 12.9375 C14.14140625 12.24527344 13.0328125 11.55304688 11.890625 10.83984375 C9.91329571 9.58130038 7.95022411 8.30014941 6 7 C6 6.34 6 5.68 6 5 C5.01 5 4.02 5 3 5 C3 4.34 3 3.68 3 3 C2.01 2.67 1.02 2.34 0 2 C0 1.34 0 0.68 0 0 Z " fill="#E1CFB1" transform="translate(114,381)"/>
<path d="M0 0 C0.80566406 0.00322266 1.61132812 0.00644531 2.44140625 0.00976562 C3.70404297 0.02233398 3.70404297 0.02233398 4.9921875 0.03515625 C6.26642578 0.04192383 6.26642578 0.04192383 7.56640625 0.04882812 C9.66669659 0.06062751 11.7669508 0.07856319 13.8671875 0.09765625 C10.84625535 3.1185884 7.30346678 2.56442459 3.2421875 2.72265625 C2.03949219 2.78066406 2.03949219 2.78066406 0.8125 2.83984375 C-1.16888806 2.93419556 -3.15081895 3.0170184 -5.1328125 3.09765625 C-5.1328125 3.75765625 -5.1328125 4.41765625 -5.1328125 5.09765625 C-4.1428125 5.09765625 -3.1528125 5.09765625 -2.1328125 5.09765625 C-1.8028125 4.43765625 -1.4728125 3.77765625 -1.1328125 3.09765625 C-0.4728125 3.09765625 0.1871875 3.09765625 0.8671875 3.09765625 C0.5371875 4.74765625 0.2071875 6.39765625 -0.1328125 8.09765625 C1.1871875 8.42765625 2.5071875 8.75765625 3.8671875 9.09765625 C1.8871875 9.75765625 -0.0928125 10.41765625 -2.1328125 11.09765625 C-2.1328125 11.75765625 -2.1328125 12.41765625 -2.1328125 13.09765625 C-2.7928125 13.09765625 -3.4528125 13.09765625 -4.1328125 13.09765625 C-4.1328125 13.75765625 -4.1328125 14.41765625 -4.1328125 15.09765625 C-9.8828125 16.22265625 -9.8828125 16.22265625 -12.1328125 15.09765625 C-12.61309708 11.89575903 -12.52922773 9.76935984 -10.8671875 6.953125 C-5.67591606 -0.03997124 -5.67591606 -0.03997124 0 0 Z " fill="#673E3F" transform="translate(90.1328125,436.90234375)"/>
<path d="M0 0 C1.15822266 0.02707031 1.15822266 0.02707031 2.33984375 0.0546875 C3.19255859 0.08949219 3.19255859 0.08949219 4.0625 0.125 C4.0625 1.115 4.0625 2.105 4.0625 3.125 C2.804375 3.41375 1.54625 3.7025 0.25 4 C-2.7914399 4.69803539 -4.24419878 5.32946585 -6.9375 7.125 C-12.57671781 8.72212113 -18.09677257 9.37894467 -23.9375 9.125 C-23.6075 7.475 -23.2775 5.825 -22.9375 4.125 C-23.5975 4.125 -24.2575 4.125 -24.9375 4.125 C-25.2675 5.115 -25.5975 6.105 -25.9375 7.125 C-27.5875 7.455 -29.2375 7.785 -30.9375 8.125 C-30.2775 6.475 -29.6175 4.825 -28.9375 3.125 C-27.79152344 3.07601563 -26.64554687 3.02703125 -25.46484375 2.9765625 C-23.93487465 2.90147199 -22.40492782 2.82592694 -20.875 2.75 C-20.12283203 2.7190625 -19.37066406 2.688125 -18.59570312 2.65625 C-12.22326826 2.32521442 -6.33437751 -0.19490392 0 0 Z " fill="#532827" transform="translate(113.9375,435.875)"/>
<path d="M0 0 C1.8671875 0.1171875 1.8671875 0.1171875 4 1 C5.1953125 3.6953125 5.1953125 3.6953125 6.125 7.125 C6.43695313 8.24132813 6.74890625 9.35765625 7.0703125 10.5078125 C7.53050781 12.23644531 7.53050781 12.23644531 8 14 C8.36609375 15.10214844 8.7321875 16.20429688 9.109375 17.33984375 C10.19504224 21.80155516 10.2206807 25.87058677 10.125 30.4375 C10.11597656 31.26443359 10.10695313 32.09136719 10.09765625 32.94335938 C10.07431512 34.96236708 10.03845288 36.98122356 10 39 C10.66 39.33 11.32 39.66 12 40 C11.82597656 40.54140625 11.65195312 41.0828125 11.47265625 41.640625 C10.90233495 44.48751809 11.12862699 46.86718522 11.4375 49.75 C11.53933594 50.73484375 11.64117187 51.7196875 11.74609375 52.734375 C11.82988281 53.48203125 11.91367187 54.2296875 12 55 C8.71139714 51.71139714 8.94619162 48.0327079 8.90234375 43.57421875 C8.90893863 41.9452837 8.92078712 40.31636266 8.9375 38.6875 C8.94201172 37.85154297 8.94652344 37.01558594 8.95117188 36.15429688 C8.96289452 34.10283351 8.98082797 32.05140727 9 30 C8.34 30 7.68 30 7 30 C7 26.7 7 23.4 7 20 C6.34 20 5.68 20 5 20 C3.875 14.375 3.875 14.375 5 11 C4.34 11 3.68 11 3 11 C2.67 9.02 2.34 7.04 2 5 C1.54625 5.495 1.0925 5.99 0.625 6.5 C-1 8 -1 8 -3 8 C-3.33 8.99 -3.66 9.98 -4 11 C-3.39301257 6.87248551 -1.96189209 3.6678852 0 0 Z " fill="#80898B" transform="translate(265,9)"/>
<path d="M0 0 C0 1.65 0 3.3 0 5 C-0.66 5 -1.32 5 -2 5 C-2 6.32 -2 7.64 -2 9 C-1.071875 9.28875 -0.14375 9.5775 0.8125 9.875 C4 11 4 11 7 13 C8.65549531 13.38499891 10.3222433 13.72793135 12 14 C12 14.66 12 15.32 12 16 C15.3 16 18.6 16 22 16 C22 17.32 22 18.64 22 20 C22.66 20.33 23.32 20.66 24 21 C19.68068613 20.38388165 15.74791225 19.35761422 11.625 17.9375 C10.56539063 17.57527344 9.50578125 17.21304687 8.4140625 16.83984375 C7.21910156 16.42412109 7.21910156 16.42412109 6 16 C6 15.34 6 14.68 6 14 C5.195625 13.8453125 5.195625 13.8453125 4.375 13.6875 C-1.66226497 11.93987067 -6.7083891 8.55824945 -11 4 C-11 3.34 -11 2.68 -11 2 C-7.17010894 0.19769832 -4.21878192 -0.19622241 0 0 Z " fill="#C29117" transform="translate(424,461)"/>
<path d="M0 0 C1.75570312 0.01353516 1.75570312 0.01353516 3.546875 0.02734375 C4.43890625 0.03894531 5.3309375 0.05054688 6.25 0.0625 C5.25 3.0625 5.25 3.0625 3.421875 4.125 C-2.68041807 6.48717796 -8.75420094 8.11121875 -15.16015625 9.44921875 C-17.66570242 9.80315598 -17.66570242 9.80315598 -18.75 11.0625 C-21.42058851 11.20365161 -24.07432238 11.10497107 -26.75 11.0625 C-26.75 10.7325 -26.75 10.4025 -26.75 10.0625 C-25.6830188 9.79771851 -25.6830188 9.79771851 -24.59448242 9.52758789 C-21.37518116 8.72795585 -18.1563368 7.92649953 -14.9375 7.125 C-13.81794922 6.84720703 -12.69839844 6.56941406 -11.54492188 6.28320312 C-10.47177734 6.01572266 -9.39863281 5.74824219 -8.29296875 5.47265625 C-7.30321045 5.22652588 -6.31345215 4.98039551 -5.29370117 4.72680664 C-3.42693182 4.23928582 -1.58036989 3.6726233 0.25 3.0625 C-8.05563447 2.74336725 -15.95401051 3.81372015 -24.12133789 5.14379883 C-26.33799375 5.50414433 -28.55641555 5.85151778 -30.77539062 6.19726562 C-37.27191205 6.6167737 -37.27191205 6.6167737 -42.75 9.0625 C-44.93639453 9.13508946 -47.12500389 9.14623783 -49.3125 9.125 C-51.10880859 9.11146484 -51.10880859 9.11146484 -52.94140625 9.09765625 C-53.86824219 9.08605469 -54.79507813 9.07445312 -55.75 9.0625 C-55.75 8.7325 -55.75 8.4025 -55.75 8.0625 C-55.03972656 8.00191406 -54.32945313 7.94132812 -53.59765625 7.87890625 C-52.21900391 7.75322266 -52.21900391 7.75322266 -50.8125 7.625 C-49.89597656 7.54378906 -48.97945313 7.46257812 -48.03515625 7.37890625 C-45.78840268 7.30205024 -45.78840268 7.30205024 -44.75 6.0625 C-43.25308597 5.76576231 -41.74506528 5.52450981 -40.234375 5.30859375 C-39.31269531 5.17646484 -38.39101562 5.04433594 -37.44140625 4.90820312 C-35.98541016 4.70614258 -35.98541016 4.70614258 -34.5 4.5 C-33.54480469 4.36142578 -32.58960937 4.22285156 -31.60546875 4.08007812 C-27.27423128 3.46864474 -23.13207713 2.98463341 -18.75 3.0625 C-18.42 2.4025 -18.09 1.7425 -17.75 1.0625 C-16.6775 1.083125 -15.605 1.10375 -14.5 1.125 C-11.03925572 1.22350665 -11.03925572 1.22350665 -8.9375 0.5625 C-5.93277721 -0.12429378 -3.07748281 -0.03077483 0 0 Z " fill="#CBB298" transform="translate(151.75,427.9375)"/>
<path d="M0 0 C0.99 0 1.98 0 3 0 C3 0.99 3 1.98 3 3 C3.66 3 4.32 3 5 3 C5 3.66 5 4.32 5 5 C5.99 5.33 6.98 5.66 8 6 C9.1875 9.0625 9.1875 9.0625 10 12 C10.66 12 11.32 12 12 12 C12 12.66 12 13.32 12 14 C12.61875 14.268125 13.2375 14.53625 13.875 14.8125 C16 16 16 16 18 19 C14.65626525 18.44271087 11.96687001 17.64826111 9 16 C8.67 16.66 8.34 17.32 8 18 C7.01 17.67 6.02 17.34 5 17 C5.66 17 6.32 17 7 17 C7 16.01 7 15.02 7 14 C5.68 13.67 4.36 13.34 3 13 C3.66 12.67 4.32 12.34 5 12 C2.78071806 9.09197539 1.07030857 7.04687238 -2 5 C-1.125 1.125 -1.125 1.125 0 0 Z " fill="#E5D5BA" transform="translate(164,434)"/>
<path d="M0 0 C1.32 0.33 2.64 0.66 4 1 C-9.50511651 12.25426376 -27.49269505 12.2154769 -44.16796875 10.81835938 C-54.24032656 9.75967344 -54.24032656 9.75967344 -57 7 C-55.99646484 7.09087891 -55.99646484 7.09087891 -54.97265625 7.18359375 C-51.64973414 7.47351313 -48.32514292 7.73675952 -45 8 C-44.33097656 8.05865234 -43.66195313 8.11730469 -42.97265625 8.17773438 C-33.3127596 9.01420587 -24.5651796 9.0266305 -15 7 C-14.07574219 6.80792969 -13.15148437 6.61585938 -12.19921875 6.41796875 C-10.12730434 5.97007434 -8.06250309 5.48940751 -6 5 C-6 4.34 -6 3.68 -6 3 C-4.02 2.67 -2.04 2.34 0 2 C0 1.34 0 0.68 0 0 Z " fill="#FCF8EB" transform="translate(420,473)"/>
<path d="M0 0 C1.8552385 2.78285774 2.79578144 4.99437426 3.875 8.125 C5.45903914 12.60914086 7.24276719 16.9201933 9.265625 21.22265625 C10 23 10 23 10 25 C7 25 7 25 5.6496582 23.71484375 C5.20452881 23.12832031 4.75939941 22.54179687 4.30078125 21.9375 C3.81416016 21.30585938 3.32753906 20.67421875 2.82617188 20.0234375 C2.32666016 19.35570312 1.82714844 18.68796875 1.3125 18 C0.80138672 17.33226562 0.29027344 16.66453125 -0.23632812 15.9765625 C-1.4992856 14.32409478 -2.75074235 12.6628489 -4 11 C-3.01 10.34 -2.02 9.68 -1 9 C-0.42006301 6.80545319 -0.42006301 6.80545319 -0.3125 4.375 C-0.21388672 3.14910156 -0.21388672 3.14910156 -0.11328125 1.8984375 C-0.05720703 0.95871094 -0.05720703 0.95871094 0 0 Z " fill="#6B6E67" transform="translate(136,250)"/>
<path d="M0 0 C0 0.99 0 1.98 0 3 C-0.66 3 -1.32 3 -2 3 C-2 3.66 -2 4.32 -2 5 C-4.26805795 5.69809445 -6.53866607 6.38371017 -8.8125 7.0625 C-9.45509766 7.26166016 -10.09769531 7.46082031 -10.75976562 7.66601562 C-15.66015625 9.11328125 -15.66015625 9.11328125 -19 8 C-18.34 7.67 -17.68 7.34 -17 7 C-20.3 7 -23.6 7 -27 7 C-23.88020454 3.88020454 -19.94824934 3.45437053 -15.75 2.375 C-14.90308594 2.14554687 -14.05617187 1.91609375 -13.18359375 1.6796875 C-8.68654651 0.50472026 -4.69034418 -0.29123052 0 0 Z " fill="#785A5A" transform="translate(171,448)"/>
<path d="M0 0 C1.07378906 0.54269531 2.14757812 1.08539063 3.25390625 1.64453125 C4.69004949 2.36729615 6.1262505 3.08994628 7.5625 3.8125 C8.26697266 4.16892578 8.97144531 4.52535156 9.69726562 4.89257812 C13.08223587 6.59286272 16.43684522 8.19205117 19.96484375 9.57421875 C20.96644531 10.04472656 21.96804687 10.51523437 23 11 C23.33 11.99 23.66 12.98 24 14 C20.53058454 13.54177532 17.32604951 13.10868317 14 12 C14 11.34 14 10.68 14 10 C13.154375 9.938125 12.30875 9.87625 11.4375 9.8125 C7.08504592 8.78373813 4.47247622 6.69894641 1 4 C0.01 3.34 -0.98 2.68 -2 2 C-1.34 2 -0.68 2 0 2 C0 1.34 0 0.68 0 0 Z " fill="#D8C298" transform="translate(117,405)"/>
<path d="M0 0 C1.98 0.66 3.96 1.32 6 2 C6 2.66 6 3.32 6 4 C6.70125 4.226875 7.4025 4.45375 8.125 4.6875 C11.69343613 6.31656867 14.06514511 8.40640731 17 11 C15.375 11.75 15.375 11.75 13 12 C9.75 10.1875 9.75 10.1875 7 8 C7 7.34 7 6.68 7 6 C6.13375 6.185625 5.2675 6.37125 4.375 6.5625 C-0.38088223 7.17900325 -4.41450689 6.16113345 -9 5 C-8.43410156 4.72285156 -7.86820312 4.44570313 -7.28515625 4.16015625 C-6.55167969 3.79792969 -5.81820313 3.43570312 -5.0625 3.0625 C-3.96615234 2.52302734 -3.96615234 2.52302734 -2.84765625 1.97265625 C-1.03750973 1.13628173 -1.03750973 1.13628173 0 0 Z " fill="#E8B75C" transform="translate(429,455)"/>
<path d="M0 0 C0 0.66 0 1.32 0 2 C-11.93108955 6.16200798 -23.7930925 4.89606651 -36 3 C-36 2.67 -36 2.34 -36 2 C-28.08 2 -20.16 2 -12 2 C-16.95 1.67 -21.9 1.34 -27 1 C-27 0.67 -27 0.34 -27 0 C-17.86533168 -0.6888091 -9.11348853 -1.30192693 0 0 Z " fill="#E2CCA9" transform="translate(200,426)"/>
<path d="M0 0 C7.82508541 3.00285445 15.41673302 6.43420048 23 10 C16.96931451 12.16222138 9.470528 9.51486374 3.81640625 7.046875 C2.1875 6.0625 2.1875 6.0625 0 4 C0 2.68 0 1.36 0 0 Z " fill="#E5D1B3" transform="translate(175,388)"/>
<path d="M0 0 C1.86834607 2.8025191 2.38505192 4.13343805 3 7.3125 C3.76038725 10.98968524 4.76492497 14.44915929 6 18 C6.309375 19.093125 6.61875 20.18625 6.9375 21.3125 C8.16903346 25.58664555 9.57169306 29.78853496 11 34 C12.04449911 37.13349732 11.93423645 37.98968256 11 41 C7.8743774 34.50970717 5.66994415 28.01464809 3.8125 21.0625 C3.55275391 20.13759766 3.29300781 19.21269531 3.02539062 18.25976562 C1.3773553 12.18290153 0.41866079 6.28161725 0 0 Z " fill="#C8C09D" transform="translate(131,224)"/>
<path d="M0 0 C0.61875 0.804375 1.2375 1.60875 1.875 2.4375 C3.74164041 5.03874519 3.74164041 5.03874519 6 6 C6 6.99 6 7.98 6 9 C6.99 9 7.98 9 9 9 C10.97568178 11.84498177 12.49901406 14.88256767 14 18 C10.45595664 18 9.89732095 17.39010515 7.3125 15.125 C6.68988281 14.59132813 6.06726563 14.05765625 5.42578125 13.5078125 C4 12 4 12 4 10 C3.34 10 2.68 10 2 10 C2 9.01 2 8.02 2 7 C1.34 7 0.68 7 0 7 C-0.38133299 5.0085944 -0.71325582 3.00720923 -1 1 C-0.67 0.67 -0.34 0.34 0 0 Z " fill="#D0BB90" transform="translate(71,375)"/>
<path d="M0 0 C2.5843218 2.5843218 3.10401163 4.89375577 4.1875 8.375 C4.55230469 9.51710938 4.91710937 10.65921875 5.29296875 11.8359375 C5.95860385 14.81474653 6.07938697 16.20871903 5 19 C4.67 18.34 4.34 17.68 4 17 C0.87802522 18.3089572 0.87802522 18.3089572 -1 21 C-1.625 17.625 -1.625 17.625 -2 14 C-1.34 13.34 -0.68 12.68 0 12 C0.24339551 9.10116917 0.24339551 9.10116917 0.125 5.875 C0.10695313 4.77929688 0.08890625 3.68359375 0.0703125 2.5546875 C0.04710937 1.71164063 0.02390625 0.86859375 0 0 Z " fill="#BDC0BC" transform="translate(284,65)"/>
<path d="M0 0 C0.33 0.66 0.66 1.32 1 2 C0.690625 2.825 0.38125 3.65 0.0625 4.5 C-1.13400523 8.44142898 -1.03734843 11.56151972 -0.77734375 15.6328125 C-1.05502309 18.58498233 -2.173065 19.71633124 -4 22 C-4.69656946 24.04735225 -4.69656946 24.04735225 -5.0625 26.125 C-6 30 -6 30 -8 32 C-8.54231961 25.11747115 -6.55404866 19.16476253 -4.5625 12.625 C-4.23701172 11.52027344 -3.91152344 10.41554687 -3.57617188 9.27734375 C-1.15279908 1.15279908 -1.15279908 1.15279908 0 0 Z " fill="#B2AE92" transform="translate(285,164)"/>
<path d="M0 0 C1.875 0.1875 1.875 0.1875 4 1 C6.20605132 5.10570661 6.2109301 8.71523958 6.125 13.3125 C6.10695313 14.56675781 6.08890625 15.82101563 6.0703125 17.11328125 C6.04710937 18.06589844 6.02390625 19.01851562 6 20 C5.67 20 5.34 20 5 20 C3.875 14.375 3.875 14.375 5 11 C4.34 11 3.68 11 3 11 C2.67 9.02 2.34 7.04 2 5 C1.54625 5.495 1.0925 5.99 0.625 6.5 C-1 8 -1 8 -3 8 C-3.33 8.99 -3.66 9.98 -4 11 C-3.39301257 6.87248551 -1.96189209 3.6678852 0 0 Z " fill="#798387" transform="translate(265,9)"/>
<path d="M0 0 C4.60139641 1.48868707 7.50227094 3.74629855 11 7 C11 7.66 11 8.32 11 9 C4.7945858 8.51679152 -0.99945246 7.66681876 -7 6 C-7 5.67 -7 5.34 -7 5 C-2.545 4.505 -2.545 4.505 2 4 C1.34 2.68 0.68 1.36 0 0 Z " fill="#EBC37B" transform="translate(462,479)"/>
<path d="M0 0 C1.32 0 2.64 0 4 0 C4 0.66 4 1.32 4 2 C5.0828125 2.433125 5.0828125 2.433125 6.1875 2.875 C10.09375 4.4375 10.09375 4.4375 14 6 C13.67 7.32 13.34 8.64 13 10 C8.49173499 10 7.99218477 9.5689029 4.8125 6.6875 C4.11769531 6.07261719 3.42289062 5.45773437 2.70703125 4.82421875 C1 3 1 3 0 0 Z " fill="#EAAC38" transform="translate(432,461)"/>
<path d="M0 0 C2.30163882 3.45245824 2.34490322 4.94738713 2 9 C-2.48891069 13.48891069 -8.61322174 15.1768594 -14.8125 15.625 C-15.78832031 15.69976562 -16.76414062 15.77453125 -17.76953125 15.8515625 C-18.87361328 15.92503906 -18.87361328 15.92503906 -20 16 C-19.34 15.67 -18.68 15.34 -18 15 C-17.67 14.01 -17.34 13.02 -17 12 C-16.175 12.268125 -15.35 12.53625 -14.5 12.8125 C-10.05270548 13.05074792 -8.26674987 11.64127365 -4.734375 9.12890625 C-3 8 -3 8 -1 8 C-0.67 5.36 -0.34 2.72 0 0 Z " fill="#FDF3D7" transform="translate(431,445)"/>
<path d="M0 0 C3.88502164 0.57555876 6.24384275 2.24384275 9 5 C9.3125 7.75 9.3125 7.75 9 10 C5.43056285 9.69404824 3.96985581 8.97575359 1.125 6.6875 C-1 4 -1 4 -0.8125 1.6875 C-0.4103125 0.8521875 -0.4103125 0.8521875 0 0 Z " fill="#50211D" transform="translate(400,434)"/>
<path d="M0 0 C-9.41002278 3.44419134 -9.41002278 3.44419134 -14 3 C-14.33 3.99 -14.66 4.98 -15 6 C-13.35 6.33 -11.7 6.66 -10 7 C-12.51699845 9.51699845 -14.57554146 10.10964078 -18 11 C-20.375 10.625 -20.375 10.625 -22 10 C-20.35 9.34 -18.7 8.68 -17 8 C-17.33 7.34 -17.66 6.68 -18 6 C-20.64 6 -23.28 6 -26 6 C-21.81558255 3.79201456 -17.53860705 2.58490501 -13 1.3125 C-12.19304687 1.07466797 -11.38609375 0.83683594 -10.5546875 0.59179688 C-9.77351563 0.37201172 -8.99234375 0.15222656 -8.1875 -0.07421875 C-7.12595703 -0.37718872 -7.12595703 -0.37718872 -6.04296875 -0.6862793 C-3.74040703 -1.0398634 -2.20110816 -0.70639496 0 0 Z " fill="#A58D8D" transform="translate(135,458)"/>
<path d="M0 0 C-1 3 -1 3 -2.828125 4.0625 C-8.93041807 6.42467796 -15.00420094 8.04871875 -21.41015625 9.38671875 C-23.91570242 9.74065598 -23.91570242 9.74065598 -25 11 C-27.67058851 11.14115161 -30.32432238 11.04247107 -33 11 C-33 10.67 -33 10.34 -33 10 C-31.9330188 9.73521851 -31.9330188 9.73521851 -30.84448242 9.46508789 C-27.62518116 8.66545585 -24.4063368 7.86399953 -21.1875 7.0625 C-20.06794922 6.78470703 -18.94839844 6.50691406 -17.79492188 6.22070312 C-16.72177734 5.95322266 -15.64863281 5.68574219 -14.54296875 5.41015625 C-13.55321045 5.16402588 -12.56345215 4.91789551 -11.54370117 4.66430664 C-9.67693182 4.17678582 -7.83036989 3.6101233 -6 3 C-7.32 2.34 -8.64 1.68 -10 1 C-6.61981469 -0.04005702 -3.5219721 -0.08004482 0 0 Z " fill="#A48370" transform="translate(158,428)"/>
<path d="M0 0 C0.99 0 1.98 0 3 0 C3 0.99 3 1.98 3 3 C3.66 3 4.32 3 5 3 C5 3.66 5 4.32 5 5 C5.99 5.33 6.98 5.66 8 6 C8 7.65 8 9.3 8 11 C4.4213696 9.34832443 1.25179812 7.21713508 -2 5 C-1.125 1.125 -1.125 1.125 0 0 Z " fill="#E4CCA4" transform="translate(164,434)"/>
<path d="M0 0 C-0.99 0 -1.98 0 -3 0 C-3.33 0.99 -3.66 1.98 -4 3 C-6.475 2.505 -6.475 2.505 -9 2 C-9 2.99 -9 3.98 -9 5 C-15.27 5 -21.54 5 -28 5 C-28 4.67 -28 4.34 -28 4 C-27.02160156 3.89042969 -26.04320313 3.78085937 -25.03515625 3.66796875 C-18.39388192 2.87881414 -12.06055497 2.0804282 -5.83203125 -0.51171875 C-3.57514718 -1.11323369 -2.19008445 -0.7235534 0 0 Z " fill="#E3D3BB" transform="translate(146,436)"/>
<path d="M0 0 C3.2470399 1.53807153 4.73959438 2.42710763 6.25 5.75 C7.03620564 9.1568911 7.58350846 12.52923717 8 16 C4.0963126 12.53005564 1.63411025 8.44775994 -1 4 C-0.34 4 0.32 4 1 4 C0.67 2.68 0.34 1.36 0 0 Z " fill="#D5CBAB" transform="translate(145,271)"/>
<path d="M0 0 C2.97 1.98 2.97 1.98 6 4 C6 4.66 6 5.32 6 6 C4.68 6 3.36 6 2 6 C2 7.98 2 9.96 2 12 C2.66 12 3.32 12 4 12 C4 12.99 4 13.98 4 15 C2.35 15.66 0.7 16.32 -1 17 C-0.67 11.39 -0.34 5.78 0 0 Z " fill="#C7BD9D" transform="translate(130,161)"/>
<path d="M0 0 C-3.52127761 4.5929708 -7.57747597 5.11941917 -13 6 C-12.67 5.01 -12.34 4.02 -12 3 C-13.98 3 -15.96 3 -18 3 C-12.69004185 -0.5399721 -6.21269575 -0.12943116 0 0 Z " fill="#7B5A5A" transform="translate(155,454)"/>
<path d="M0 0 C0.721875 0.103125 1.44375 0.20625 2.1875 0.3125 C2.00390625 2.109375 2.00390625 2.109375 1.1875 4.3125 C-1.09765625 6.015625 -1.09765625 6.015625 -3.875 7.5625 C-5.25365234 8.34367187 -5.25365234 8.34367187 -6.66015625 9.140625 C-7.37042969 9.52734375 -8.08070312 9.9140625 -8.8125 10.3125 C-7.98172547 4.939556 -5.9064668 0.65627409 0 0 Z " fill="#E3DBC4" transform="translate(80.8125,359.6875)"/>
<path d="M0 0 C1.10807948 3.32423843 0.76802174 4.67190578 0 8 C0 8.66 0 9.32 0 10 C0.66 10 1.32 10 2 10 C2 10.66 2 11.32 2 12 C1.34 12 0.68 12 0 12 C0.08378906 12.77085937 0.16757813 13.54171875 0.25390625 14.3359375 C0.35574219 15.33882813 0.45757812 16.34171875 0.5625 17.375 C0.66691406 18.37273437 0.77132812 19.37046875 0.87890625 20.3984375 C1 23 1 23 0 25 C-0.66 25 -1.32 25 -2 25 C-2.05800828 21.39590081 -2.09359869 17.79192149 -2.125 14.1875 C-2.14175781 13.16333984 -2.15851563 12.13917969 -2.17578125 11.08398438 C-2.18222656 10.10107422 -2.18867187 9.11816406 -2.1953125 8.10546875 C-2.20578613 7.19949951 -2.21625977 6.29353027 -2.22705078 5.36010742 C-2 3 -2 3 0 0 Z " fill="#DED4B6" transform="translate(71,372)"/>
<path d="M0 0 C1.4391134 0.28359887 2.87625518 0.57721399 4.3125 0.875 C5.11300781 1.03742188 5.91351563 1.19984375 6.73828125 1.3671875 C9 2 9 2 12 4 C11.50628906 4.33773438 11.01257813 4.67546875 10.50390625 5.0234375 C9.86324219 5.46945312 9.22257813 5.91546875 8.5625 6.375 C7.92441406 6.81585938 7.28632813 7.25671875 6.62890625 7.7109375 C4.86259072 8.92160853 4.86259072 8.92160853 4 11 C2.35 10.67 0.7 10.34 -1 10 C1.38573379 8.10786631 3.07175348 6.97608217 6 6 C6.33 5.34 6.66 4.68 7 4 C5.02 4 3.04 4 1 4 C0.67 2.68 0.34 1.36 0 0 Z " fill="#E0CCA9" transform="translate(151,424)"/>
<path d="M0 0 C1.32 0.33 2.64 0.66 4 1 C4 1.66 4 2.32 4 3 C4.85851562 3.39832031 4.85851562 3.39832031 5.734375 3.8046875 C8.1076012 5.05676891 10.12213286 6.4936352 12.25 8.125 C12.95640625 8.66382813 13.6628125 9.20265625 14.390625 9.7578125 C14.92171875 10.16773438 15.4528125 10.57765625 16 11 C12.50304895 11 10.9093482 9.78592135 7.984375 8.0234375 C4.77947678 6.37051755 1.5178675 5.74060368 -2 5 C-1.34 3.35 -0.68 1.7 0 0 Z " fill="#F1CA7F" transform="translate(446,467)"/>
<path d="M0 0 C-3.465 1.485 -3.465 1.485 -7 3 C-5.68 3.66 -4.36 4.32 -3 5 C-5.97 5.66 -8.94 6.32 -12 7 C-11.34 6.34 -10.68 5.68 -10 5 C-13.3 5 -16.6 5 -20 5 C-17.30621211 2.30621211 -14.77425019 1.86327163 -11.125 0.8125 C-9.89007813 0.44769531 -8.65515625 0.08289063 -7.3828125 -0.29296875 C-4.31094495 -0.93501035 -2.85642008 -1.12677877 0 0 Z " fill="#8F7574" transform="translate(164,450)"/>
<path d="M0 0 C3.13153319 2.70228876 4.95181385 6.12332737 6.9375 9.6875 C7.28868896 10.31237305 7.63987793 10.93724609 8.00170898 11.58105469 C9.00902111 13.38314613 10.0067366 15.19013442 11 17 C11.71542969 18.30130859 11.71542969 18.30130859 12.4453125 19.62890625 C13.36921761 21.38303378 14.19804053 23.18687424 15 25 C14.67 25.66 14.34 26.32 14 27 C0 3.80666667 0 3.80666667 0 0 Z " fill="#F4F0E1" transform="translate(364,266)"/>
<path d="M0 0 C0 0.66 0 1.32 0 2 C-3.7467656 2.86879579 -7.4978086 3.71747243 -11.25 4.5625 C-12.31347656 4.80935547 -13.37695312 5.05621094 -14.47265625 5.31054688 C-16.00986328 5.65375977 -16.00986328 5.65375977 -17.578125 6.00390625 C-18.99206543 6.32597046 -18.99206543 6.32597046 -20.43457031 6.65454102 C-22.99331539 6.99909986 -24.57743919 6.819982 -27 6 C-24.60468067 5.35220924 -22.20878252 4.70670991 -19.8125 4.0625 C-19.13896484 3.88009766 -18.46542969 3.69769531 -17.77148438 3.50976562 C-14.19657504 2.55064361 -10.63010262 1.71570407 -7 1 C-4 0 -4 0 0 0 Z " fill="#FBF7EA" transform="translate(357,479)"/>
<path d="M0 0 C5.28 0.33 10.56 0.66 16 1 C16 2.32 16 3.64 16 5 C16.66 5.33 17.32 5.66 18 6 C13.68068613 5.38388165 9.74791225 4.35761422 5.625 2.9375 C4.56539063 2.57527344 3.50578125 2.21304687 2.4140625 1.83984375 C1.61742187 1.56269531 0.82078125 1.28554688 0 1 C0 0.67 0 0.34 0 0 Z " fill="#D4B45D" transform="translate(430,476)"/>
<path d="M0 0 C3.19137349 0.63252447 5.51237368 1.75603064 8.25 3.5 C8.95640625 3.9434375 9.6628125 4.386875 10.390625 4.84375 C11.18726563 5.41609375 11.18726563 5.41609375 12 6 C12 6.33 12 6.66 12 7 C10.3745692 6.85904936 8.74965949 6.71207913 7.125 6.5625 C6.22007812 6.48128906 5.31515625 6.40007812 4.3828125 6.31640625 C2 6 2 6 0 5 C0 3.35 0 1.7 0 0 Z " fill="#C59320" transform="translate(446,476)"/>
<path d="M0 0 C-0.33 0.66 -0.66 1.32 -1 2 C-3.82411765 2.94137255 -5.52918032 3.11725382 -8.44921875 3.09765625 C-9.29677734 3.09443359 -10.14433594 3.09121094 -11.01757812 3.08789062 C-11.89865234 3.07951172 -12.77972656 3.07113281 -13.6875 3.0625 C-14.58017578 3.05798828 -15.47285156 3.05347656 -16.39257812 3.04882812 C-18.59511987 3.03704983 -20.79752599 3.02060164 -23 3 C-23 2.67 -23 2.34 -23 2 C-15.2472493 0.48462814 -7.89957062 -0.27990605 0 0 Z " fill="#684334" transform="translate(153,430)"/>
<path d="M0 0 C2.42130331 3.63195496 2.21022785 5.38349348 2.125 9.6875 C2.10695312 10.86699219 2.08890625 12.04648437 2.0703125 13.26171875 C2.03550781 14.61716797 2.03550781 14.61716797 2 16 C-1.36748512 14.48052501 -2.60840337 13.47899158 -4 10 C-3.01 9.67 -2.02 9.34 -1 9 C-0.67 6.03 -0.34 3.06 0 0 Z " fill="#616866" transform="translate(136,250)"/>
<path d="M0 0 C0.66 0.66 1.32 1.32 2 2 C-8.37357631 6.59225513 -8.37357631 6.59225513 -14 6 C-13.375 4.0859375 -13.375 4.0859375 -12 2 C-9.25 1.1015625 -9.25 1.1015625 -6 0.625 C-4.9275 0.45226562 -3.855 0.27953125 -2.75 0.1015625 C-1.8425 0.06804687 -0.935 0.03453125 0 0 Z " fill="#4F2827" transform="translate(133,459)"/>
<path d="M0 0 C2.7466254 2.46534449 4.44125656 5.17018759 6.25 8.375 C7.06210937 9.77878906 7.06210937 9.77878906 7.890625 11.2109375 C9.1412257 14.35505333 8.99473676 15.81915572 8 19 C6.5393715 16.35261084 6 15.10551666 6 12 C5.34 12 4.68 12 4 12 C3.896875 11.38125 3.79375 10.7625 3.6875 10.125 C3.12474627 7.63473516 3.12474627 7.63473516 0 6 C-0.1875 2.875 -0.1875 2.875 0 0 Z " fill="#F3EEE2" transform="translate(355,249)"/>
<path d="M0 0 C1.84187025 2.76280538 2.72248277 4.80707826 3.6875 7.9375 C3.95949219 8.79214844 4.23148437 9.64679687 4.51171875 10.52734375 C5.02075548 13.10510574 4.84888744 14.54449337 4 17 C1.05148444 14.65511755 0.06964494 13.57666013 -0.390625 9.765625 C-0.34421875 8.60546875 -0.2978125 7.4453125 -0.25 6.25 C-0.21390625 5.07953125 -0.1778125 3.9090625 -0.140625 2.703125 C-0.09421875 1.81109375 -0.0478125 0.9190625 0 0 Z " fill="#B1B6B5" transform="translate(275,35)"/>
<path d="M0 0 C0 0.66 0 1.32 0 2 C-1.98 2.66 -3.96 3.32 -6 4 C-6 3.34 -6 2.68 -6 2 C-12.93 1.67 -19.86 1.34 -27 1 C-27 0.67 -27 0.34 -27 0 C-17.86533168 -0.6888091 -9.11348853 -1.30192693 0 0 Z " fill="#E8D4B3" transform="translate(200,426)"/>
<path d="M0 0 C0 0.33 0 0.66 0 1 C-3.96 1.66 -7.92 2.32 -12 3 C-12 2.34 -12 1.68 -12 1 C-14.97 1 -17.94 1 -21 1 C-21 0.67 -21 0.34 -21 0 C-13.81949816 -0.71148265 -7.12971149 -1.25818438 0 0 Z " fill="#552A21" transform="translate(146,433)"/>
<path d="M0 0 C0.66 0 1.32 0 2 0 C2 1.32 2 2.64 2 4 C0.35 4 -1.3 4 -3 4 C-2.45276317 7.37462715 -1.9451 9.08235 0 12 C-0.375 14.1875 -0.375 14.1875 -1 16 C-3.50030495 13.06485941 -4.61469778 10.85302223 -5 7 C-4.8125 4.8125 -4.8125 4.8125 -4 3 C-1.9375 1.75 -1.9375 1.75 0 1 C0 0.67 0 0.34 0 0 Z " fill="#6C7575" transform="translate(39,120)"/>
<path d="M0 0 C0.33 0 0.66 0 1 0 C1 5.28 1 10.56 1 16 C-2.03061766 13.97958823 -2.72239767 13.24314437 -4 10 C-4 9.01 -4 8.02 -4 7 C-3.34 7 -2.68 7 -2 7 C-1.67 7.66 -1.34 8.32 -1 9 C-0.67 6.03 -0.34 3.06 0 0 Z " fill="#747571" transform="translate(272,222)"/>
<path d="M0 0 C3.46116084 1.01302269 6.48593249 2.20711389 9.5625 4.0625 C12.572786 5.75920666 14.62171521 6.59051093 18 7 C18 7.66 18 8.32 18 9 C16.53984709 8.71758359 15.08190207 8.42373386 13.625 8.125 C12.81289063 7.96257812 12.00078125 7.80015625 11.1640625 7.6328125 C9 7 9 7 7 5 C6.175 4.690625 5.35 4.38125 4.5 4.0625 C2 3 2 3 0 0 Z " fill="#C39E36" transform="translate(418,468)"/>
<path d="M0 0 C-1.65 0.33 -3.3 0.66 -5 1 C-3.824375 2.1446875 -3.824375 2.1446875 -2.625 3.3125 C0 6 0 6 2 9 C0.35 8.67 -1.3 8.34 -3 8 C-3 7.34 -3 6.68 -3 6 C-4.32 6 -5.64 6 -7 6 C-6.67 4.02 -6.34 2.04 -6 0 C-3 -1 -3 -1 0 0 Z " fill="#F4E0AC" transform="translate(418,462)"/>
<path d="M0 0 C1.32 0.33 2.64 0.66 4 1 C4 1.66 4 2.32 4 3 C4.62648438 3.19335938 5.25296875 3.38671875 5.8984375 3.5859375 C6.71570313 3.84632813 7.53296875 4.10671875 8.375 4.375 C9.18710938 4.63023437 9.99921875 4.88546875 10.8359375 5.1484375 C13 6 13 6 15 8 C13.32421875 8.671875 13.32421875 8.671875 11 9 C8.45703125 7.890625 8.45703125 7.890625 5.8125 6.25 C4.93207031 5.71890625 4.05164063 5.1878125 3.14453125 4.640625 C1 3 1 3 0 0 Z " fill="#E1DAC2" transform="translate(92,427)"/>
<path d="M0 0 C1.67618948 2.51428422 2.77988088 4.68059986 3.9375 7.4375 C5.07390584 10.07344889 6.0614866 12.08056865 7.8125 14.375 C8.204375 14.91125 8.59625 15.4475 9 16 C8.67 16.99 8.34 17.98 8 19 C3.11574544 13.76687012 0 7.16987735 0 0 Z " fill="#E9DFCA" transform="translate(70,397)"/>
<path d="M0 0 C1.90318884 2.85478326 2.4619099 4.41941308 3.125 7.6875 C3.29257812 8.49574219 3.46015625 9.30398437 3.6328125 10.13671875 C3.75398438 10.75160156 3.87515625 11.36648437 4 12 C2.68 11.67 1.36 11.34 0 11 C-0.66 12.32 -1.32 13.64 -2 15 C-2.6875 13.25 -2.6875 13.25 -3 11 C-2.2884375 10.1028125 -2.2884375 10.1028125 -1.5625 9.1875 C0.62796151 6.12085389 0.21185848 3.67221361 0 0 Z " fill="#E8E6D9" transform="translate(304,125)"/>
<path d="M0 0 C2.62027436 2.62027436 3.48198873 5.57923297 4.6875 9 C4.92533203 9.64195313 5.16316406 10.28390625 5.40820312 10.9453125 C6.00166907 12.60910558 6.50730517 14.30363299 7 16 C6.67 16.66 6.34 17.32 6 18 C1.72069465 12.29425954 0 7.27001966 0 0 Z " fill="#D2D2D0" transform="translate(297,106)"/>
<path d="M0 0 C4.875 2.625 4.875 2.625 6 6 C3.72942623 6.05398987 1.45848712 6.09278742 -0.8125 6.125 C-2.70935547 6.15980469 -2.70935547 6.15980469 -4.64453125 6.1953125 C-8 6 -8 6 -11 4 C-6.71 4 -2.42 4 2 4 C1.34 2.68 0.68 1.36 0 0 Z " fill="#E3B75D" transform="translate(459,478)"/>
<path d="M0 0 C3.26954202 0.56371414 4.82575883 1.49962266 7 4 C6.01 4 5.02 4 4 4 C3.67 4.99 3.34 5.98 3 7 C1.68 6.01 0.36 5.02 -1 4 C-0.67 2.68 -0.34 1.36 0 0 Z " fill="#623A33" transform="translate(400,434)"/>
<path d="M0 0 C7.57142857 4 7.57142857 4 10 8 C7.6875 8.1875 7.6875 8.1875 5 8 C3.3125 6.5625 3.3125 6.5625 2 5 C1.34 4.67 0.68 4.34 0 4 C0 2.68 0 1.36 0 0 Z " fill="#F2CA88" transform="translate(436,459)"/>
<path d="M0 0 C0.99 0 1.98 0 3 0 C2.745504 1.48206495 2.47088238 2.96068615 2.1875 4.4375 C2.03667969 5.26121094 1.88585937 6.08492187 1.73046875 6.93359375 C1.36888672 7.95646484 1.36888672 7.95646484 1 9 C0.01 9.33 -0.98 9.66 -2 10 C-2.33 10.99 -2.66 11.98 -3 13 C-3.66 13 -4.32 13 -5 13 C-3.79618552 10.50638429 -2.54571278 8.31856917 -1 6 C-0.60986284 4.0103005 -0.26797351 2.00980131 0 0 Z " fill="#BBBBAD" transform="translate(300,133)"/>
<path d="M0 0 C2.41346327 4.1373656 4.5081809 9.45467653 3.55078125 14.25 C3.36902344 14.8275 3.18726563 15.405 3 16 C-0.42724441 10.85913339 -0.1015597 5.99202204 0 0 Z " fill="#767465" transform="translate(132,234)"/>
<path d="M0 0 C5.75 -0.125 5.75 -0.125 8 1 C8.625 4.0625 8.625 4.0625 9 7 C5.18315774 5.44499019 2.80804268 2.96404505 0 0 Z " fill="#E7A630" transform="translate(444,472)"/>
<path d="M0 0 C0.66 0 1.32 0 2 0 C2 0.66 2 1.32 2 2 C2.66 2 3.32 2 4 2 C8 6.47058824 8 6.47058824 8 9 C4.63704165 7.55873214 2.37072898 5.79407345 0 3 C0 2.01 0 1.02 0 0 Z " fill="#D7BD98" transform="translate(164,436)"/>
<path d="M0 0 C1.37478516 0.01740234 1.37478516 0.01740234 2.77734375 0.03515625 C3.69644531 0.04417969 4.61554688 0.05320312 5.5625 0.0625 C6.27277344 0.07410156 6.98304687 0.08570313 7.71484375 0.09765625 C7.71484375 0.42765625 7.71484375 0.75765625 7.71484375 1.09765625 C6.01328125 1.31421875 6.01328125 1.31421875 4.27734375 1.53515625 C0.90707174 1.70937103 0.90707174 1.70937103 -0.28515625 3.09765625 C-2.47155078 3.17024571 -4.66016014 3.18139408 -6.84765625 3.16015625 C-8.64396484 3.14662109 -8.64396484 3.14662109 -10.4765625 3.1328125 C-11.40339844 3.12121094 -12.33023438 3.10960937 -13.28515625 3.09765625 C-13.28515625 2.76765625 -13.28515625 2.43765625 -13.28515625 2.09765625 C-12.57488281 2.03707031 -11.86460938 1.97648437 -11.1328125 1.9140625 C-9.75416016 1.78837891 -9.75416016 1.78837891 -8.34765625 1.66015625 C-7.43113281 1.57894531 -6.51460938 1.49773437 -5.5703125 1.4140625 C-2.93338839 1.04894993 -2.66304439 0.11380532 0 0 Z " fill="#B2978A" transform="translate(109.28515625,433.90234375)"/>
<path d="M0 0 C2.9375 1.625 2.9375 1.625 6 4 C6.875 7.25 6.875 7.25 7 10 C6.01 10.495 6.01 10.495 5 11 C4.54625 10.071875 4.0925 9.14375 3.625 8.1875 C2.0578367 4.96078611 2.0578367 4.96078611 0 2 C0 1.34 0 0.68 0 0 Z " fill="#DCCAA4" transform="translate(74,405)"/>
<path d="M0 0 C1.88500864 2.82751297 2.42317657 4.27652054 3.0625 7.5 C3.58700025 10.10082768 4.15796475 12.47389425 5 15 C4.34 15.66 3.68 16.32 3 17 C2.49453964 14.91798472 1.99583165 12.83432933 1.5 10.75 C1.2215625 9.58984375 0.943125 8.4296875 0.65625 7.234375 C0 4 0 4 0 0 Z " fill="#CEC4A0" transform="translate(131,224)"/>
<path d="M0 0 C2 1 4 2 6 3 C6 3.66 6 4.32 6 5 C6.804375 5.268125 7.60875 5.53625 8.4375 5.8125 C9.283125 6.204375 10.12875 6.59625 11 7 C11.33 7.99 11.66 8.98 12 10 C8.16713064 9.45244723 6.59901736 7.7666959 4 5 C3.01 4.34 2.02 3.68 1 3 C0.67 2.01 0.34 1.02 0 0 Z " fill="#E0D7BE" transform="translate(140,170)"/>
<path d="M0 0 C1.98 0.66 3.96 1.32 6 2 C6 2.66 6 3.32 6 4 C6.66 4 7.32 4 8 4 C8 4.66 8 5.32 8 6 C4.7 5.01 1.4 4.02 -2 3 C-1.34 2.67 -0.68 2.34 0 2 C0 1.34 0 0.68 0 0 Z " fill="#E7D8BB" transform="translate(146,400)"/>
<path d="M0 0 C3.10190545 4.65285818 4.33846504 9.41532676 4 15 C1.08634787 11.19958418 -0.13131548 9.19208393 -0.0625 4.375 C-0.05347656 3.55773437 -0.04445313 2.74046875 -0.03515625 1.8984375 C-0.02355469 1.27195312 -0.01195312 0.64546875 0 0 Z " fill="#AEB5B5" transform="translate(271,20)"/>
<path d="M0 0 C3.33727786 1.17255709 5.77437487 2.18868404 8 5 C8 5.66 8 6.32 8 7 C4.7 6.67 1.4 6.34 -2 6 C-2 5.67 -2 5.34 -2 5 C-0.02 4.67 1.96 4.34 4 4 C2.68 2.68 1.36 1.36 0 0 Z " fill="#F4DAA6" transform="translate(465,481)"/>
<path d="M0 0 C3.63 0 7.26 0 11 0 C11 0.33 11 0.66 11 1 C8.69 1 6.38 1 4 1 C3.67 1.99 3.34 2.98 3 4 C1.35 4.33 -0.3 4.66 -2 5 C-1.34 3.35 -0.68 1.7 0 0 Z " fill="#441817" transform="translate(85,439)"/>
<path d="M0 0 C-1.65 0.33 -3.3 0.66 -5 1 C-4.67 2.65 -4.34 4.3 -4 6 C-5.9375 5.1875 -5.9375 5.1875 -8 4 C-8.33 3.01 -8.66 2.02 -9 1 C-5.57367167 -0.61798838 -3.61944899 -1.34053666 0 0 Z " fill="#C59C39" transform="translate(422,462)"/>
<path d="M0 0 C2 0 2 0 3.625 1.5625 C5.45512039 4.80680433 5.21131282 7.33724439 5 11 C1.19015156 8.22920113 0.93159248 4.37131855 0 0 Z " fill="#C2BA98" transform="translate(138,254)"/>
<path d="M0 0 C-1.125 1.5 -1.125 1.5 -3 3 C-6.0625 3.3125 -6.0625 3.3125 -9 3 C-9.66 2.34 -10.32 1.68 -11 1 C-7.32589215 -0.17571451 -3.83070817 -0.07366746 0 0 Z " fill="#4C2224" transform="translate(155,454)"/>
<path d="M0 0 C1.24546405 2.49092811 0.7767578 3.41080733 0 6 C3.465 5.505 3.465 5.505 7 5 C7 5.66 7 6.32 7 7 C1.25 8.125 1.25 8.125 -1 7 C-1.04254356 5.00045254 -1.04080783 2.99958364 -1 1 C-0.67 0.67 -0.34 0.34 0 0 Z " fill="#9D8A8A" transform="translate(79,445)"/>
<path d="M0 0 C1 2 1 2 0.29296875 4.12890625 C-0.07183594 4.93199219 -0.43664062 5.73507813 -0.8125 6.5625 C-1.16957031 7.36816406 -1.52664063 8.17382812 -1.89453125 9.00390625 C-3 11 -3 11 -5 12 C-4.42365861 7.24518354 -2.44931479 4.02951788 0 0 Z " fill="#B0B2A1" transform="translate(294,146)"/>
<path d="M0 0 C-0.33 0.99 -0.66 1.98 -1 3 C-3.25 3.6875 -3.25 3.6875 -6 4 C-8.3125 2.5625 -8.3125 2.5625 -10 1 C-6.61981469 -0.04005702 -3.5219721 -0.08004482 0 0 Z " fill="#947A61" transform="translate(158,428)"/>
<path d="M0 0 C2.24956302 2.24956302 3.00510965 4.06323263 4.1875 7 C4.55230469 7.886875 4.91710937 8.77375 5.29296875 9.6875 C6 12 6 12 5 14 C1.31903365 9.25036599 0.41330414 5.99291003 0 0 Z " fill="#F8F5EA" transform="translate(325,181)"/>
<path d="M0 0 C0.33 0 0.66 0 1 0 C1.35233161 5.37305699 1.35233161 5.37305699 1 8 C-1 10 -1 10 -3 11 C-2.32829194 7.1936543 -1.27253436 3.64793184 0 0 Z " fill="#748084" transform="translate(258,42)"/>
<path d="M0 0 C0.4125 0.515625 0.825 1.03125 1.25 1.5625 C-1.39 1.8925 -4.03 2.2225 -6.75 2.5625 C-6.42 1.5725 -6.09 0.5825 -5.75 -0.4375 C-3.11357013 -1.66783394 -2.29825603 -1.88785317 0 0 Z " fill="#4A1E1D" transform="translate(117.75,465.4375)"/>
<path d="M0 0 C0.66 0.66 1.32 1.32 2 2 C-1.82320557 3.42258812 -4.91281305 4.24042276 -9 4 C-8 2 -8 2 -6.22265625 1.296875 C-5.15337891 1.02617187 -5.15337891 1.02617187 -4.0625 0.75 C-2.99708984 0.46382813 -2.99708984 0.46382813 -1.91015625 0.171875 C-1.27980469 0.11515625 -0.64945313 0.0584375 0 0 Z " fill="#461719" transform="translate(133,459)"/>
<path d="M0 0 C-1 2 -1 2 -3 4 C-3.99 3.67 -4.98 3.34 -6 3 C-5.34 3 -4.68 3 -4 3 C-4 2.01 -4 1.02 -4 0 C-5.32 -0.33 -6.64 -0.66 -8 -1 C-4.59745511 -2.2151946 -3.06748874 -1.86240388 0 0 Z " fill="#DBCFC4" transform="translate(175,448)"/>
<path d="M0 0 C-0.99 0 -1.98 0 -3 0 C-3.33 0.99 -3.66 1.98 -4 3 C-6.64 2.67 -9.28 2.34 -12 2 C-7.89783794 -0.73477471 -4.73617773 -1.57872591 0 0 Z " fill="#DBC3A8" transform="translate(146,436)"/>
<path d="M0 0 C1.98 1.65 3.96 3.3 6 5 C5.67 5.66 5.34 6.32 5 7 C4.34 6.67 3.68 6.34 3 6 C2.67 6.99 2.34 7.98 2 9 C0.50178941 5.62902617 0 3.79557881 0 0 Z " fill="#D3BF97" transform="translate(71,396)"/>
<path d="M0 0 C1.74271938 2.297221 3.39911152 4.59866729 5 7 C4.67 7.99 4.34 8.98 4 10 C2.02 7.03 0.04 4.06 -2 1 C-1.34 0.67 -0.68 0.34 0 0 Z " fill="#B4B09F" transform="translate(146,274)"/>
<path d="M0 0 C2 0 2 0 3.6875 1.25 C4.120625 1.8275 4.55375 2.405 5 3 C4.6875 5.1875 4.6875 5.1875 4 7 C3.01 7 2.02 7 1 7 C0.67 4.69 0.34 2.38 0 0 Z " fill="#A0A5A4" transform="translate(288,101)"/>
<path d="M0 0 C1.32 0 2.64 0 4 0 C4.33 1.32 4.66 2.64 5 4 C4.01 3.67 3.02 3.34 2 3 C-0.14255793 3.38932856 -0.14255793 3.38932856 -2 4 C-1.34 2.68 -0.68 1.36 0 0 Z " fill="#512828" transform="translate(105,463)"/>
<path d="M0 0 C-1.125 1.5 -1.125 1.5 -3 3 C-6.1875 3.1875 -6.1875 3.1875 -9 3 C-6.38997624 -0.48003168 -4.1689578 -0.27793052 0 0 Z " fill="#482121" transform="translate(165,451)"/>
<path d="M0 0 C0.66 0.99 1.32 1.98 2 3 C0.68 5.31 -0.64 7.62 -2 10 C-2.66 10 -3.32 10 -4 10 C-2.8905928 6.51329166 -1.73662334 3.22515763 0 0 Z " fill="#E7E2D0" transform="translate(287,300)"/>
<path d="M0 0 C1.32 0.33 2.64 0.66 4 1 C3.67 2.98 3.34 4.96 3 7 C2.01 6.67 1.02 6.34 0 6 C0 4.02 0 2.04 0 0 Z " fill="#3E4A4A" transform="translate(36,124)"/>
<path d="M0 0 C0.99 0.33 1.98 0.66 3 1 C3 4.3 3 7.6 3 11 C1.04783565 7.09567131 0.49360009 4.27786748 0 0 Z " fill="#959B9D" transform="translate(285,90)"/>
<path d="M0 0 C0 0.33 0 0.66 0 1 C-2.64 1.33 -5.28 1.66 -8 2 C-8 2.99 -8 3.98 -8 5 C-8.66 5 -9.32 5 -10 5 C-10.33 4.01 -10.66 3.02 -11 2 C-7.17010894 0.19769832 -4.21878192 -0.19622241 0 0 Z " fill="#FAEAC1" transform="translate(420,460)"/>
<path d="M0 0 C1.32 0.33 2.64 0.66 4 1 C4.33 2.32 4.66 3.64 5 5 C3.68 4.67 2.36 4.34 1 4 C0.67 2.68 0.34 1.36 0 0 Z " fill="#DBD4BC" transform="translate(153,288)"/>
<path d="M0 0 C0.66 0.33 1.32 0.66 2 1 C2.625 3.5625 2.625 3.5625 3 6 C2.01 6 1.02 6 0 6 C-1.6875 3.5 -1.6875 3.5 -3 1 C-2.01 0.67 -1.02 0.34 0 0 Z " fill="#85887B" transform="translate(143,269)"/>
<path d="M0 0 C0.66 0.33 1.32 0.66 2 1 C2.8125 4.375 2.8125 4.375 3 8 C1.5625 9.9375 1.5625 9.9375 0 11 C-0.33 10.01 -0.66 9.02 -1 8 C-0.67 7.67 -0.34 7.34 0 7 C0.04092937 4.66702567 0.04241723 2.33294775 0 0 Z " fill="#646D70" transform="translate(297,131)"/>
<path d="M0 0 C3.465 1.485 3.465 1.485 7 3 C6.01 3.495 6.01 3.495 5 4 C4.34 3.67 3.68 3.34 3 3 C3 3.66 3 4.32 3 5 C2.01 4.67 1.02 4.34 0 4 C0 2.68 0 1.36 0 0 Z " fill="#E8D6BB" transform="translate(175,388)"/>
<path d="M0 0 C2.49361571 1.20381448 4.68143083 2.45428722 7 4 C6.67 4.99 6.34 5.98 6 7 C1.125 3.375 1.125 3.375 0 0 Z " fill="#E2DBBE" transform="translate(157,184)"/>
<path d="M0 0 C2.5 1.375 2.5 1.375 5 3 C5 3.66 5 4.32 5 5 C3.35 5 1.7 5 0 5 C0 3.35 0 1.7 0 0 Z " fill="#D9D3B1" transform="translate(131,162)"/>
<path d="M0 0 C2 3 2 3 2 5 C1.01 5 0.02 5 -1 5 C-1.33 5.99 -1.66 6.98 -2 8 C-2.33 6.35 -2.66 4.7 -3 3 C-2.34 3 -1.68 3 -1 3 C-0.67 2.01 -0.34 1.02 0 0 Z " fill="#A0A5A1" transform="translate(301,128)"/>
</svg>
